<?xml version="1.0" encoding="UTF-8" standalone="no"?>
<!DOCTYPE svg PUBLIC "-//W3C//DTD SVG 1.1//EN" "http://www.w3.org/Graphics/SVG/1.1/DTD/svg11.dtd">
<svg width="100%" height="100%" viewBox="0 0 536 164" version="1.1" xmlns="http://www.w3.org/2000/svg" xmlns:xlink="http://www.w3.org/1999/xlink" xml:space="preserve" xmlns:serif="http://www.serif.com/" style="fill-rule:evenodd;clip-rule:evenodd;stroke-linejoin:round;stroke-miterlimit:2;">
    <path d="M199.02,95.23L203.57,107.39L230.75,105.7C242.37,104.89 251.25,102.38 258.34,93.03C265.42,83.68 268.96,71.43 268.96,56.49C268.96,43.4 265.66,31.87 259.06,21.91C252.46,11.95 242.74,6.63 229.24,6.51C215.74,6.39 198.67,9.68 198.67,9.68L198.67,78.83L222.93,76.34L222.93,33.1L229.24,32.65C233.87,32.65 237.84,33.93 240.29,39.2C242.74,44.48 243.54,49.14 243.54,56.42C243.54,64.92 242.58,69.22 239.82,74.15C237.06,79.08 233.25,81.55 229.24,81.55L174.7,85.15L174.7,5.6L150.44,9.68L150.44,109.69L194.26,107.97L199.02,95.23ZM142.59,5.6L118.33,9.68L118.33,109.69L142.59,104.79L142.59,5.6ZM412.29,5.6L388.03,9.68L388.03,109.69L412.29,104.79L412.29,5.6ZM82.03,67.7L68.98,5.88L47.8,9.96L35.81,67.6L23.51,5.88L0,9.95L23.35,110.09L46.98,105.19L58.59,54.84L70.89,110.08L93.56,105.18L116.88,5.88L94.34,9.96L82.03,67.71L82.03,67.7ZM333.66,104.79L337.56,89.53L358.31,85L364.05,109.69L386.69,105.16L361.9,5.6L336.25,9.68L311.85,109.69L333.66,104.79ZM348.92,39.13L354.47,64.06L342.11,67.23L348.93,39.12L348.92,39.13ZM518.4,49.612C514.42,47.891 507.71,46.78 498.25,44.624C490.81,42.912 489.66,43.264 489.66,38.683C489.66,34.842 492.17,33.899 497.44,33.334C506.22,32.381 531,30.502 531,30.502L535.67,5.56C535.67,5.56 513.58,8.346 497.9,10.354C487.35,11.705 479.62,14.01 473.5,19.914C467.62,25.587 464.6,33.972 464.6,42.69C464.6,49.474 467.84,54.841 472.62,58.987C477.86,63.541 484.18,66.346 498.04,69.187C501.67,69.974 504.19,70.908 505.6,71.991C507.01,73.074 507.71,74.61 507.71,76.6C507.71,80.394 504.66,82.12 498.56,82.24C508.12,82.04 444.41,84.64 444.41,84.64L444.41,5.56L420.15,9.69L420.15,109.69C420.15,109.69 442.51,109.36 463.38,108.07L468.34,94.69L473.15,107.47C484.55,106.76 494.19,107.13 497.52,106.86C508.49,105.95 516.99,105.83 523.47,99.42C529.95,93.01 533.2,84.55 533.2,75.184C533.2,69.261 531.87,62.976 529.21,58.663C526.55,54.351 522.38,51.343 518.41,49.622L518.4,49.612ZM307.4,104.79L307.4,33.64L323.78,33.64L329.71,5.6L261.68,9.68L268.03,33.64L284.41,33.64L284.41,109.69L307.39,104.79L307.4,104.79ZM73.85,146.25C73.85,146.25 73.7,146.16 73.47,146.04C73.16,145.89 72.68,145.72 71.99,145.52C71.87,145.45 71.62,145.4 71.25,145.37C70.86,145.33 70.63,145.31 70.58,145.3C70.46,145.28 70.27,145.22 69.99,145.13C69.7,145.03 69.46,144.98 69.26,144.97L69.21,144.97C67.33,144.62 64.46,144.34 57.44,144.4C52.24,144.42 44.96,144.64 38.72,145.47C32.91,146.19 28.38,146.82 28.38,147C28.04,147.17 28.73,147.52 30.4,148.04C31.98,148.53 33.33,148.8 34.47,148.86C35.84,148.99 37.2,149.06 38.55,149.07C39.83,149.07 41.26,149.05 42.81,148.98C44.26,148.92 45.22,148.88 45.75,148.87C47.26,148.84 49.45,148.95 52.08,149.18C54.38,149.38 55.93,149.47 56.9,149.47C57.37,149.45 57.99,149.41 58.76,149.35C59.49,149.3 60,149.26 60.3,149.25C60.52,149.25 60.81,149.27 61.17,149.33C61.52,149.39 61.75,149.42 61.89,149.41C62.6,149.41 63.65,149.34 64.96,149.22C66.13,149.11 66.94,149.05 67.44,149.03C67.48,149.03 68.17,149 69.39,148.94C70.55,148.86 71.09,148.82 71.12,148.82C71.26,148.79 71.46,148.73 71.74,148.65C72,148.57 72.18,148.52 72.28,148.49C72.33,148.47 72.49,148.43 72.77,148.39C73.03,148.35 73.21,148.31 73.29,148.27C73.41,148.21 73.56,148.08 73.73,147.89C73.9,147.71 74,147.57 74.03,147.47C74.07,147.33 74.08,147.15 74.06,146.93C74.04,146.61 73.98,146.38 73.89,146.24L73.85,146.25ZM113.72,158.17C113.44,158.11 113.1,157.94 112.7,157.66C112.3,157.38 112.06,157.24 111.98,157.24C111.9,157.24 111.74,157.14 111.51,156.94C111.26,156.74 111.13,156.45 111.13,156.05C111.13,155.91 111.12,155.8 111.09,155.71L111.01,155.58C110.93,155.64 110.84,155.58 110.76,155.41C110.51,154.9 110.48,154.44 110.68,154.01C110.74,153.87 110.69,153.8 110.55,153.8C110.32,153.8 110.15,153.48 110.04,152.83C109.96,152.52 109.88,152.36 109.83,152.36C109.78,152.36 109.7,152.25 109.62,152.02C109.59,151.85 109.48,151.64 109.28,151.38C109.11,151.18 109,150.96 108.94,150.72C108.88,150.48 108.8,150.32 108.69,150.23C108.58,150.12 108.55,149.98 108.61,149.81C108.64,149.64 108.58,149.56 108.44,149.56C108.33,149.56 108.26,149.52 108.23,149.45C108.2,149.38 108.19,149.17 108.19,148.84C108.16,148.53 108.05,148.11 107.85,147.57C107.74,147.26 107.64,146.93 107.55,146.6C107.44,146.2 107.34,145.95 107.27,145.84C107.2,145.73 107.06,145.67 106.87,145.67L106.53,145.67L106.78,145.33C106.95,145.1 106.99,144.98 106.91,144.95C106.8,144.92 106.68,144.87 106.57,144.78C106.51,144.7 106.39,144.6 106.19,144.48C106.05,144.4 105.98,144.33 105.98,144.29C105.98,144.25 106.04,144.17 106.15,144.06C106.29,143.89 106.36,143.78 106.36,143.72C106.39,143.66 106.33,143.65 106.19,143.68C106.05,143.74 105.98,143.69 105.98,143.55C105.98,143.41 105.91,143.3 105.77,143.21C105.49,143.04 105.32,142.93 105.26,142.87C105.2,142.81 105.22,142.72 105.3,142.57C105.41,142.37 105.4,142.27 105.26,142.27C105.18,142.27 105.12,142.24 105.09,142.19C105.15,142.13 105.09,142.04 104.92,141.89C104.78,141.81 104.71,141.74 104.71,141.7C104.71,141.66 104.75,141.59 104.84,141.51C105.01,141.37 105.08,141.26 105.05,141.17C105.05,141.11 105.01,141.11 104.92,141.15C104.84,141.19 104.71,141.13 104.54,140.96C104.37,140.79 104.34,140.65 104.46,140.54C104.6,140.46 104.73,140.44 104.84,140.5C104.92,140.53 104.98,140.54 105.01,140.52C105.04,140.51 105.02,140.46 104.97,140.37C104.89,140.12 104.79,139.95 104.67,139.88C104.56,139.81 104.39,139.77 104.16,139.77L103.65,139.77L104.12,139.52C104.18,139.46 104.23,139.41 104.29,139.35C104.63,139.1 104.64,138.97 104.33,138.97C104.19,138.97 104.15,138.93 104.2,138.84C104.26,138.73 104.23,138.63 104.12,138.54C104.01,138.48 103.95,138.4 103.95,138.29C103.95,138.18 103.78,138.12 103.44,138.12C103.1,138.12 102.93,138.11 102.93,138.08L103.35,137.66C103.75,137.27 103.8,137.01 103.52,136.9C103.41,136.84 103.35,136.77 103.35,136.67C103.35,136.57 103.17,136.45 102.8,136.31C102.55,136.17 102.37,136.11 102.27,136.12C102.17,136.13 101.99,136.2 101.74,136.31L101.19,136.61L101.91,135.93C102.36,135.51 102.53,135.23 102.42,135.1C102.31,134.97 102.35,134.85 102.55,134.74C102.75,134.63 102.77,134.53 102.61,134.44C102.45,134.36 102.39,134.17 102.42,133.89C102.45,133.61 102.39,133.35 102.25,133.13C102.08,132.88 102,132.66 102,132.49C102,132.32 101.94,132.24 101.81,132.24C101.68,132.24 101.62,132.17 101.62,132.03C101.62,131.89 101.55,131.82 101.41,131.82C101.27,131.82 101.23,131.75 101.28,131.61C101.34,131.47 101.29,131.31 101.15,131.14C100.98,130.97 100.91,130.72 100.94,130.38C100.94,130.04 100.81,129.69 100.56,129.32C100.31,128.98 100.07,128.81 99.86,128.79C99.65,128.78 99.37,128.92 99.03,129.23C98.69,129.54 98.3,129.81 97.84,130.03C97.36,130.26 97.12,130.41 97.12,130.5C97.12,130.59 97.06,130.63 96.93,130.63C96.8,130.63 96.2,131.03 95.13,131.84C94.06,132.64 93.52,133.09 93.52,133.17C93.52,133.25 93.42,133.3 93.22,133.3C92.99,133.3 92.77,133.34 92.54,133.43C92.31,133.51 92.23,133.67 92.29,133.9C92.35,134.07 92.29,134.34 92.12,134.73C91.95,135.11 91.75,135.41 91.53,135.64C91.36,135.84 91.29,135.99 91.32,136.11C91.35,136.22 91.31,136.35 91.19,136.49C91.05,136.63 90.87,137.07 90.64,137.8C90.47,138.34 90.34,138.66 90.26,138.77C90.18,138.88 90.02,138.97 89.79,139.02C89.31,139.13 89.18,139.27 89.41,139.44C89.61,139.55 89.52,139.82 89.16,140.24C89.02,140.44 88.81,141.06 88.52,142.1C88.41,142.47 88.24,142.72 88.01,142.86C87.78,142.97 87.73,143.06 87.84,143.11C87.9,143.14 87.93,143.2 87.95,143.3C87.96,143.4 87.96,143.5 87.95,143.6C87.94,143.7 87.9,143.75 87.84,143.75C87.78,143.75 87.68,143.93 87.54,144.28C87.4,144.63 87.3,144.96 87.24,145.28C87.18,145.56 87.11,145.73 87.03,145.79C86.95,145.85 86.9,145.95 86.9,146.09C86.9,146.26 86.76,146.39 86.48,146.47C86.25,146.55 86.12,146.63 86.08,146.7C86.04,146.77 86.02,146.95 86.02,147.23C86.05,147.6 85.92,148.01 85.64,148.46C85.36,148.91 85.23,149.15 85.26,149.18C85.32,149.24 85.23,149.47 85.01,149.88C84.78,150.29 84.67,150.58 84.67,150.75C84.67,150.98 84.51,151.41 84.18,152.06C83.86,152.71 83.62,153.08 83.48,153.16C83.28,153.24 83.2,153.34 83.23,153.46C83.26,153.71 83.07,154.14 82.66,154.73C82.25,155.32 81.89,155.68 81.58,155.79C81.13,155.96 81.06,156.28 81.37,156.76C81.54,157.04 81.62,157.28 81.62,157.48C81.62,157.65 81.54,157.76 81.39,157.8C81.23,157.84 80.79,157.92 80.06,158.03C79.41,158.11 79.07,158.17 79.04,158.2C78.98,158.26 78.93,158.48 78.89,158.86C78.85,159.24 78.89,159.52 79.04,159.69C79.12,159.83 79.33,159.91 79.65,159.92C79.97,159.93 80.88,159.96 82.38,159.98C84.47,159.98 85.63,160.02 85.85,160.11C86.13,160.22 86.77,160.3 87.78,160.34C88.78,160.38 89.47,160.36 89.83,160.28C90.17,160.17 90.42,160.06 90.57,159.96C90.72,159.86 90.85,159.68 90.93,159.43C91.04,159.18 91.06,158.93 90.97,158.69C90.89,158.45 90.72,158.27 90.46,158.16C90.21,158.05 90.13,157.93 90.23,157.82C90.33,157.71 90.31,157.65 90.17,157.65C89.55,157.65 88.87,157.18 88.14,156.25L87.46,155.36L87.54,154.6C87.6,154.09 87.65,153.84 87.71,153.84C87.79,153.78 87.84,153.71 87.84,153.63C87.84,153.55 88.01,153.18 88.35,152.53L88.82,151.56L89.71,151.39C91.32,150.97 92.9,150.75 94.45,150.75C95.18,150.75 95.68,150.71 95.95,150.64C96.22,150.57 96.39,150.42 96.48,150.2C96.59,149.97 96.68,149.86 96.76,149.86C96.84,149.86 96.87,149.97 96.87,150.2C96.87,150.77 97.14,151.03 97.67,151C97.87,151 98.29,151.04 98.94,151.13C99.42,151.21 100.03,151.24 100.78,151.21C101.53,151.18 102.03,151.11 102.28,151C102.53,150.92 102.68,150.73 102.7,150.45C102.7,150.17 102.8,150.03 103,150.03C103.2,150.03 103.3,150.17 103.32,150.45C103.33,150.73 103.23,150.99 103,151.21C102.58,151.61 102.55,151.8 102.92,151.8C103.06,151.8 103.22,151.97 103.39,152.31C103.56,152.65 103.74,152.92 103.94,153.11C104.19,153.36 104.39,153.68 104.53,154.04C104.67,154.41 104.73,154.72 104.7,154.97C104.67,155.28 104.65,155.44 104.64,155.44C104.63,155.44 104.6,155.6 104.58,155.91C104.5,156.45 104.3,156.71 103.99,156.71C103.88,156.71 103.85,156.81 103.91,157.01C103.97,157.21 103.88,157.36 103.66,157.48C103.46,157.54 103.04,157.69 102.39,157.95C101.97,158.12 101.71,158.25 101.63,158.33C101.55,158.41 101.5,158.56 101.5,158.75C101.5,159.46 101.74,159.81 102.22,159.81C102.47,159.84 102.63,159.91 102.69,160.02C102.77,160.16 104.01,160.22 106.4,160.21C108.79,160.2 110.19,160.12 110.61,159.98C111.01,159.87 111.39,159.85 111.75,159.94C112.06,160 112.48,160.05 113.02,160.11C113.47,160.14 113.77,160.09 113.91,159.96C114.05,159.83 114.12,159.52 114.12,159.01C114.12,158.64 114.11,158.42 114.08,158.35C114.05,158.28 113.94,158.22 113.74,158.16L113.72,158.17ZM99.92,146.99C99.44,146.93 99.19,146.98 99.16,147.12C99.1,147.26 98.67,147.33 97.87,147.33C97.07,147.33 96.61,147.4 96.49,147.54C96.38,147.68 96.1,147.74 95.66,147.71C95.22,147.68 95,147.6 95,147.46C95,147.21 94.87,147.04 94.6,146.97C94.33,146.9 93.76,146.88 92.89,146.91C91.79,146.91 91.15,146.94 90.98,146.99C90.95,147.02 90.92,147.03 90.9,147.03C90.67,147 90.69,146.82 90.94,146.48C91.08,146.28 91.15,146.09 91.15,145.91C91.15,145.73 91.22,145.58 91.36,145.47C91.47,145.36 91.56,145.16 91.61,144.88C91.67,144.68 91.72,144.56 91.76,144.52C91.8,144.48 91.88,144.47 91.99,144.5C92.22,144.56 92.41,144.53 92.58,144.42C92.72,144.34 92.73,144.29 92.62,144.29C92.45,144.29 92.52,143.87 92.83,143.02C92.94,142.63 92.97,142.38 92.91,142.3C92.85,142.22 92.91,142.08 93.06,141.9C93.21,141.72 93.32,141.51 93.38,141.29C93.38,141.09 93.46,140.87 93.63,140.61C93.86,140.24 94.13,139.76 94.46,139.15C94.78,138.54 94.97,138.13 95.03,137.9C95.09,137.76 95.14,137.7 95.2,137.71C95.26,137.72 95.4,137.83 95.62,138.03C95.87,138.28 96,138.58 96,138.92C96.03,139.29 96.15,139.58 96.38,139.81C96.61,140.06 96.69,140.23 96.63,140.32C96.6,140.38 96.63,140.44 96.74,140.51C96.84,140.58 96.97,140.64 97.14,140.68C97.31,140.72 97.46,140.73 97.61,140.7C97.84,140.64 97.98,140.67 98.05,140.78C98.12,140.89 98.1,141.09 97.99,141.37C97.88,141.62 97.95,142.01 98.2,142.51C98.45,142.99 98.67,143.3 98.84,143.44C99.01,143.61 99.09,143.75 99.09,143.86C99.09,144 99.17,144.15 99.32,144.3C99.47,144.46 99.61,144.53 99.72,144.53C100.03,144.53 100.1,144.71 99.93,145.08C99.79,145.33 99.76,145.48 99.85,145.5C99.93,145.58 99.95,145.7 99.89,145.84C99.86,146.01 99.94,146.16 100.12,146.31C100.3,146.45 100.37,146.56 100.31,146.65C100.25,146.76 100.28,146.86 100.39,146.95C100.42,147.01 100.25,147.02 99.88,146.99L99.92,146.99ZM154.46,134.16C154.18,133.85 153.91,133.69 153.66,133.69C153.38,133.69 153.05,133.52 152.69,133.18C152.29,132.84 151.94,132.64 151.63,132.59C151.32,132.56 150.9,132.42 150.36,132.17C149.91,131.94 149.05,131.65 147.78,131.28C146.51,130.91 145.55,130.69 144.9,130.6C144.65,130.54 143.64,130.49 141.89,130.43C140.31,130.4 139.38,130.35 139.1,130.26C138.76,130.15 138.51,130.15 138.34,130.26C138.17,130.34 137.31,130.39 135.76,130.39C133.39,130.36 131.38,130.46 129.75,130.69C127.55,131.03 125.57,131.2 123.82,131.2L122.85,131.2L122.47,131.79C122.1,132.38 122.01,132.81 122.19,133.06C122.37,133.31 122.92,133.48 123.82,133.57C124.64,133.68 125.3,133.71 125.81,133.65C126.18,133.62 126.83,133.64 127.76,133.69C128.69,133.75 129.28,133.82 129.54,133.9C129.71,133.96 129.78,134.1 129.75,134.32C129.72,134.57 129.75,134.79 129.83,134.96C129.83,135.02 129.86,135.12 129.91,135.26C129.97,135.4 130.01,135.5 130.04,135.56C130.1,135.76 130.12,135.97 130.12,136.2C130.06,136.96 130.2,137.88 130.54,138.95C130.65,139.32 130.72,139.57 130.73,139.71C130.74,139.85 130.71,140.05 130.62,140.3C130.48,140.67 130.45,140.95 130.54,141.15C130.65,141.43 130.72,142.07 130.75,143.08C130.78,144.08 130.75,144.68 130.67,144.88C130.56,145.11 130.49,145.3 130.46,145.47C130.23,146.6 130.15,147.5 130.21,148.18C130.27,148.8 130.22,149.31 130.08,149.7C129.97,149.98 129.91,150.25 129.91,150.5C129.91,150.75 129.97,151.36 130.08,152.32C130.11,152.72 130.09,153.07 130.04,153.38C129.93,153.69 129.86,154.11 129.83,154.65C129.77,155.24 129.65,155.66 129.47,155.9C129.29,156.14 128.88,156.4 128.26,156.68C127.53,157.02 126.99,157.25 126.65,157.36C126.08,157.56 125.44,157.84 124.72,158.21C124,158.58 123.61,158.83 123.56,158.97C123.48,159.14 123.45,159.4 123.5,159.75C123.54,160.1 123.61,160.28 123.69,160.28C123.77,160.28 123.89,160.35 124.03,160.49C124.17,160.63 124.42,160.69 124.79,160.66C125.16,160.6 125.4,160.62 125.51,160.7C125.65,160.76 125.98,160.71 126.48,160.57C126.96,160.4 127.48,160.33 128.05,160.36C128.61,160.42 129.14,160.39 129.62,160.28C130.13,160.17 130.95,160.1 132.08,160.07L133.77,159.99L134.45,160.41C135.3,160.92 135.99,161 136.52,160.66C136.83,160.43 137.18,160.36 137.58,160.45C138.51,160.62 139.08,160.59 139.27,160.37C139.38,160.26 139.52,160.23 139.69,160.29C139.97,160.4 140.4,160.47 140.96,160.5C141.52,160.53 141.89,160.5 142.06,160.42C142.26,160.31 142.43,160.06 142.59,159.68C142.74,159.3 142.79,158.97 142.74,158.68C142.71,158.37 142.53,158.09 142.21,157.85C141.89,157.61 141.54,157.49 141.17,157.49C140.89,157.49 140.46,157.34 139.88,157.05C139.3,156.75 138.84,156.45 138.5,156.14C138.16,155.83 137.95,155.67 137.86,155.67C137.69,155.67 137.46,155.36 137.18,154.74C137.1,154.51 137.11,154.3 137.22,154.1C137.3,153.96 137.34,153.86 137.33,153.8C137.32,153.74 137.24,153.66 137.1,153.55C136.93,153.38 136.84,153.11 136.82,152.75C136.81,152.38 136.88,151.72 137.05,150.76C137.11,150.48 137.09,150.3 136.99,150.23C136.89,150.16 136.88,150.01 136.97,149.79C137.08,149.56 137.14,149.27 137.14,148.9C137.14,148.56 137.21,148.39 137.35,148.39C137.55,148.39 138.01,148.35 138.75,148.26C139.62,148.18 140.61,148.12 141.71,148.09C142.84,148.06 143.56,147.98 143.87,147.84C144.15,147.7 144.51,147.61 144.93,147.59C145.27,147.59 145.55,147.53 145.78,147.4C146.01,147.27 146.12,147.14 146.12,147C146.12,146.75 146.36,146.8 146.84,147.17C146.98,147.31 147.25,147.33 147.64,147.21C148.06,147.1 148.54,146.88 149.08,146.55C149.62,146.23 149.9,145.99 149.93,145.85C149.99,145.68 150.24,145.48 150.69,145.26C151.06,145.06 151.41,144.88 151.75,144.71C151.98,144.6 152.13,144.46 152.22,144.29C152.33,144.12 152.47,144.01 152.62,143.97C152.77,143.93 152.9,143.79 152.98,143.57C153.04,143.37 153.23,143.17 153.57,142.98C154.22,142.56 154.81,141.81 155.35,140.74C155.6,140.23 155.74,139.59 155.77,138.81C155.8,138.03 155.71,137.26 155.52,136.5C155.27,135.46 154.91,134.68 154.46,134.17L154.46,134.16ZM148.32,139.24C148.29,139.3 148.25,139.48 148.19,139.79C148.05,140.64 147.67,141.54 147.05,142.5C146.63,143.18 146.41,143.6 146.41,143.77C146.41,143.94 146.28,144.07 146.03,144.15C145.24,144.46 143.91,144.76 142.05,145.04C141.4,145.15 140.86,145.28 140.44,145.42C140.07,145.53 139.51,145.59 138.75,145.59C137.85,145.62 137.34,145.62 137.23,145.59C137.12,145.56 137.06,145.42 137.06,145.17C137.06,144.94 137.02,144.48 136.93,143.77C136.87,143.29 136.85,142.99 136.87,142.86C136.88,142.73 136.96,142.58 137.1,142.42C137.3,142.22 137.4,142.07 137.4,141.98C137.4,141.89 137.32,141.76 137.15,141.62C136.9,141.39 136.9,140.58 137.15,139.16C137.23,138.6 137.25,138.26 137.19,138.14C137.11,138.06 137.06,137.63 137.06,136.87C137.06,136.11 137.02,135.49 136.93,135.09C136.9,134.81 136.89,134.62 136.91,134.52C136.92,134.42 137.02,134.3 137.19,134.16C137.53,133.82 137.6,133.6 137.4,133.48C137.37,133.37 137.64,133.28 138.2,133.23C140.18,133.12 141.8,133.23 143.07,133.57C143.78,133.74 144.42,133.95 145.02,134.21C145.39,134.35 145.62,134.46 145.72,134.53C145.82,134.6 145.87,134.72 145.87,134.89C145.87,135.03 146.06,135.37 146.44,135.91C146.82,136.45 147.12,136.81 147.35,137.01C147.66,137.24 147.86,137.6 147.94,138.11C147.97,138.36 148.05,138.6 148.19,138.83C148.33,139.03 148.37,139.17 148.32,139.25L148.32,139.24ZM170.09,137.04C168.71,137.12 167.97,137.25 167.89,137.42C167.81,137.5 167.4,137.5 166.66,137.42C164.57,137.14 163.46,137.02 163.31,137.08C163.23,137.14 162.87,137.15 162.25,137.12C161.63,137.09 161.28,137.05 161.19,136.99C161.08,136.88 160.75,136.84 160.19,136.86C159.64,136.89 159.19,136.97 158.86,137.11C157.98,137.42 157.55,137.79 157.55,138.21C157.55,138.46 157.63,138.62 157.8,138.68C157.83,138.68 157.92,138.71 158.08,138.76C158.23,138.82 158.34,138.86 158.4,138.89C158.68,139.03 158.94,139.13 159.16,139.19C159.41,139.25 159.56,139.32 159.6,139.4C159.64,139.48 159.79,139.53 160.04,139.53C160.41,139.53 160.75,139.61 161.06,139.76C161.37,139.92 161.58,140.12 161.7,140.37C161.84,140.65 161.91,140.89 161.91,141.09C161.91,141.26 161.98,141.39 162.12,141.47C162.29,141.55 162.29,141.61 162.12,141.64C161.98,141.72 161.92,141.91 161.95,142.19C162.01,142.39 162.08,142.91 162.16,143.76C162.27,144.58 162.36,145.07 162.41,145.22C162.47,145.38 162.58,145.45 162.75,145.45C162.83,145.45 162.89,145.46 162.92,145.49C162.92,145.52 162.85,145.56 162.71,145.62C162.51,145.68 162.44,145.82 162.5,146.04C162.56,146.24 162.54,146.58 162.46,147.06C162.35,147.57 162.28,148.51 162.25,149.88C162.22,151.25 162.24,152.2 162.29,152.74C162.4,153.36 162.36,153.83 162.16,154.14C161.96,154.45 161.89,154.66 161.95,154.78C162.01,154.92 161.98,155.01 161.87,155.03C161.73,155.09 161.57,155.31 161.4,155.71C161.2,156.11 160.99,156.44 160.76,156.73C160.59,156.93 160.34,157.12 160.02,157.3C159.7,157.48 159.46,157.56 159.32,157.53C159.24,157.5 159,157.59 158.62,157.81C158.24,158.02 158.05,158.16 158.05,158.21C158.05,158.32 157.97,158.38 157.8,158.38C157.57,158.38 157.38,158.54 157.23,158.87C157.07,159.19 157.02,159.4 157.08,159.48C157.16,159.59 157.43,159.63 157.88,159.61C158.3,159.61 158.6,159.64 158.77,159.69C158.94,159.77 159.14,159.76 159.36,159.65C159.61,159.57 160.11,159.55 160.84,159.61C161.63,159.67 162.21,159.65 162.58,159.57C163,159.49 164.16,159.46 166.05,159.49C167.49,159.49 168.34,159.48 168.59,159.45C168.84,159.42 169,159.34 169.06,159.2C169.14,159 169.19,158.99 169.19,159.16C169.19,159.47 169.63,159.63 170.5,159.63C170.87,159.63 171.1,159.61 171.2,159.57C171.3,159.53 171.42,159.41 171.56,159.21C171.81,158.81 171.9,158.48 171.81,158.19C171.81,158.11 171.78,158.08 171.73,158.11C171.65,158.11 171.35,158.04 170.84,157.9C169.88,157.59 169.19,157.17 168.77,156.63C168.6,156.43 168.46,156.33 168.35,156.33C168.24,156.33 168.11,156.16 167.97,155.82C167.8,155.45 167.62,155.17 167.42,154.97C167.28,154.83 167.19,154.63 167.17,154.38C167.14,154.13 167.13,153.43 167.13,152.31C167.1,150.81 167.06,149.94 167,149.68C166.97,149.48 166.93,148.68 166.87,147.27C166.81,145.86 166.79,144.79 166.79,144.05C166.79,143.23 166.89,142.57 167.09,142.06C167.57,140.93 168.13,140.27 168.78,140.07C169.12,139.93 169.33,139.82 169.42,139.73C169.53,139.62 169.96,139.41 170.69,139.09C171.82,138.64 172.45,138.13 172.6,137.57C172.66,137.37 172.63,137.23 172.52,137.15C172.29,137.01 171.49,136.98 170.11,137.07L170.09,137.04ZM227.09,158.55C226.81,158.47 226.43,158.25 225.95,157.91C225.47,157.6 225.23,157.32 225.23,157.06C225.2,156.83 225.12,156.65 224.98,156.51C224.81,156.34 224.75,156.09 224.81,155.75C224.87,155.41 224.82,155.24 224.68,155.24C224.57,155.24 224.48,155.13 224.43,154.9C224.35,154.53 224.06,153.9 223.58,152.99C223.41,152.74 223.33,152.51 223.33,152.31C223.33,152.17 223.26,152.07 223.12,152.01C223.01,151.98 222.92,151.76 222.87,151.33C222.81,150.85 222.69,150.38 222.51,149.91C222.33,149.44 222.18,149.2 222.07,149.17C221.93,149.11 221.9,149.03 221.99,148.92C222.13,148.69 221.99,148.5 221.57,148.33C221.4,148.27 221.36,148.16 221.44,147.99C221.52,147.85 221.46,147.68 221.25,147.48C221.04,147.28 220.88,147.18 220.78,147.18C220.68,147.18 220.69,147.1 220.8,146.93C220.88,146.79 220.83,146.65 220.63,146.51C220.46,146.34 220.43,146.16 220.55,145.96L220.59,145.75C220.59,145.75 220.51,145.77 220.42,145.73C220.34,145.69 220.27,145.62 220.23,145.54C220.19,145.46 220.18,145.39 220.21,145.33C220.27,145.25 220.34,145.22 220.42,145.25C220.48,145.31 220.5,145.31 220.5,145.25C220.58,145.11 220.54,144.97 220.37,144.83C220.23,144.72 220.09,144.69 219.95,144.75C219.87,144.78 219.82,144.79 219.8,144.77C219.79,144.76 219.85,144.69 219.99,144.58C220.22,144.38 220.26,144.24 220.12,144.16C220.01,144.08 219.98,144.03 220.04,144.03C220.12,144.03 220.12,143.99 220.04,143.9C219.81,143.62 219.57,143.48 219.32,143.48C219.24,143.48 219.25,143.4 219.36,143.23C219.56,143.06 219.61,142.88 219.53,142.68C219.39,142.45 219.2,142.28 218.96,142.15C218.72,142.02 218.52,142 218.35,142.09C218.27,142.12 218.22,142.13 218.2,142.11C218.19,142.1 218.26,142.02 218.43,141.88C218.63,141.63 218.7,141.44 218.64,141.33C218.58,141.19 218.64,141.08 218.81,140.99C218.95,140.88 218.96,140.81 218.85,140.78C218.74,140.72 218.68,140.6 218.68,140.4C218.68,140.2 218.61,139.94 218.47,139.62C218.33,139.3 218.22,139.13 218.13,139.13C218.04,139.13 218,139.06 218,138.92C218,138.81 217.96,138.77 217.87,138.79C217.84,138.82 217.81,138.83 217.79,138.81C217.76,138.8 217.76,138.76 217.79,138.7C217.79,138.59 217.75,138.42 217.66,138.19C217.55,137.94 217.52,137.75 217.58,137.64C217.61,137.53 217.52,137.32 217.33,137C217.13,136.69 216.96,136.52 216.82,136.49C216.68,136.49 216.47,136.6 216.18,136.83C215.9,137.11 215.59,137.32 215.25,137.47C214.88,137.64 214.7,137.77 214.7,137.85C214.7,137.91 214.64,137.93 214.53,137.93C214.42,137.93 213.96,138.23 213.17,138.82C212.49,139.36 212.08,139.67 211.94,139.77C211.8,139.87 211.6,139.93 211.35,139.96C211.1,140.02 211,140.16 211.05,140.38C211.11,140.58 211.01,140.86 210.75,141.23C210.47,141.63 210.33,141.89 210.33,142.03C210.33,142.17 210.29,142.28 210.2,142.37C210.14,142.4 210.02,142.69 209.82,143.26C209.62,143.83 209.42,144.14 209.23,144.19C209.03,144.25 208.93,144.39 208.93,144.61C208.93,144.83 208.87,144.98 208.76,145.03C208.68,145.09 208.56,145.31 208.42,145.69C208.28,146.07 208.21,146.35 208.21,146.52C208.21,146.69 208.13,146.84 207.96,146.96C207.79,147.08 207.73,147.22 207.79,147.36C207.85,147.5 207.8,147.66 207.66,147.83C207.52,147.97 207.45,148.07 207.45,148.13C207.45,148.19 207.35,148.53 207.15,149.15C207.04,149.52 206.93,149.7 206.83,149.7C206.73,149.7 206.6,149.76 206.43,149.87C206.26,150.01 206.23,150.14 206.35,150.25C206.46,150.39 206.19,151.1 205.55,152.37C205.38,152.68 205.3,152.91 205.3,153.07C205.3,153.23 205.2,153.51 205,153.94C204.8,154.36 204.63,154.63 204.49,154.74C204.38,154.85 204.25,155.06 204.11,155.38C204,155.66 203.83,155.96 203.6,156.27C203.37,156.58 203.21,156.74 203.11,156.74C203.01,156.74 202.9,156.81 202.79,156.95C202.68,157.09 202.69,157.27 202.83,157.5C203.03,157.84 203.09,158.06 203.02,158.16C202.95,158.26 202.72,158.32 202.32,158.35C201.73,158.43 201.37,158.51 201.24,158.58C201.11,158.65 201.03,158.81 201.01,159.07C200.96,159.32 200.98,159.49 201.06,159.62C200.94,159.58 200.82,159.53 200.68,159.49C199.75,159.24 198.36,158.28 196.53,156.61C195.63,155.82 194.96,155.08 194.54,154.39C194.12,153.7 193.75,152.76 193.44,151.57C193.24,150.78 193.07,150.24 192.93,149.96C192.79,149.68 192.58,149.49 192.29,149.41C192.23,149.38 192.23,149.31 192.29,149.2C192.43,148.92 192.6,148.78 192.8,148.78C192.91,148.78 193.03,148.72 193.14,148.61C193.31,148.41 193.96,147.99 195.09,147.34C195.29,147.23 195.39,147.11 195.39,147C195.39,146.89 195.53,146.73 195.81,146.53C196.23,146.28 196.59,145.88 196.89,145.34C197.19,144.8 197.36,144.21 197.42,143.56C197.5,143 197.45,142.36 197.25,141.65C197.05,140.97 196.81,140.44 196.51,140.06C196.21,139.68 195.94,139.52 195.68,139.57C195.48,139.63 195.27,139.53 195.04,139.27C194.84,139.02 194.47,138.8 193.94,138.63C193.43,138.49 193.02,138.33 192.71,138.16C192.14,137.85 191.03,137.5 189.36,137.1C188.99,137.02 187.51,136.96 184.91,136.93C182.31,136.9 180.48,136.92 179.41,136.97C179.18,137 178.61,137.04 177.67,137.1C176.74,137.16 176.07,137.2 175.68,137.23L173.14,137.44L172.84,137.86C172.7,138.14 172.63,138.37 172.63,138.54C172.63,138.79 172.77,138.96 173.05,139.05C173.33,139.13 174,139.21 175.04,139.26C177.13,139.34 178.17,139.47 178.17,139.64L178.17,139.89C178.17,139.97 178.09,140.03 177.92,140.06C177.86,140.06 177.84,140.07 177.84,140.1C177.84,140.13 177.91,140.14 178.05,140.14C178.3,140.14 178.45,140.22 178.49,140.37C178.53,140.53 178.47,140.67 178.3,140.81C178.1,140.95 178,141.19 178,141.53C178,141.87 178.07,142.19 178.21,142.5C178.35,142.78 178.42,143.01 178.42,143.18C178.42,143.35 178.52,143.5 178.72,143.65C179.09,143.88 179.12,144.19 178.8,144.58C178.72,144.69 178.66,145.31 178.63,146.44C178.6,147.6 178.55,148.36 178.46,148.73C178.38,149.13 178.38,149.59 178.46,150.13C178.52,150.61 178.54,150.98 178.54,151.23C178.54,151.99 178.55,152.78 178.58,153.6C178.61,154.62 178.5,155.35 178.26,155.8C178.02,156.25 177.46,156.66 176.59,157.03C175.88,157.28 175.26,157.51 174.73,157.71C174.02,157.99 173.58,158.21 173.4,158.37C173.22,158.53 173.12,158.76 173.12,159.07C173.12,159.38 173.22,159.59 173.42,159.71C173.65,159.82 173.96,159.89 174.35,159.92C174.74,159.95 175.04,159.92 175.24,159.84C175.44,159.76 175.88,159.7 176.55,159.67C177.28,159.64 178.16,159.59 179.18,159.5C179.97,159.42 180.46,159.38 180.64,159.39C180.82,159.4 181.01,159.47 181.21,159.58C181.86,160.06 182.41,160.16 182.86,159.88C183.14,159.71 183.51,159.67 183.96,159.75C184.44,159.83 184.76,159.83 184.93,159.75C185.13,159.67 185.47,159.65 185.95,159.71C186.46,159.79 186.81,159.79 187.01,159.71C187.18,159.65 187.33,159.49 187.48,159.22C187.62,158.95 187.68,158.71 187.65,158.48C187.62,158.25 187.47,158.03 187.21,157.8C186.94,157.57 186.67,157.46 186.38,157.46C186.18,157.46 185.87,157.35 185.45,157.14C185.03,156.93 184.7,156.71 184.48,156.48C184.23,156.25 184.07,156.14 184.01,156.14C183.95,156.14 183.85,156.03 183.69,155.82C183.53,155.61 183.44,155.45 183.41,155.33C183.41,155.19 183.44,155.05 183.49,154.91C183.57,154.77 183.53,154.64 183.36,154.53C183.28,154.45 183.23,154.38 183.23,154.32C183.23,154.26 183.29,154.14 183.4,153.94C183.54,153.66 183.55,153.47 183.44,153.39C183.33,153.31 183.3,153.07 183.36,152.67C183.42,152.28 183.4,152.05 183.32,151.99C183.26,151.96 183.25,151.72 183.28,151.27L183.32,150.63L184.21,150.55C184.61,150.55 184.87,150.56 185.01,150.59C185.15,150.62 185.32,150.73 185.52,150.93C185.8,151.16 185.94,151.33 185.94,151.44C185.94,151.58 186.01,151.67 186.15,151.69C186.29,151.75 186.33,151.82 186.28,151.9C186.22,152.01 186.3,152.2 186.51,152.45C186.72,152.7 186.93,152.86 187.12,152.92C187.32,152.98 187.63,153.26 188.05,153.77C188.47,154.28 188.81,154.76 189.07,155.21C189.18,155.46 189.49,155.9 189.98,156.52C190.47,157.14 190.75,157.45 190.81,157.45C190.89,157.45 191.05,157.66 191.28,158.09C191.56,158.49 191.92,158.87 192.34,159.23C192.85,159.65 193.17,159.92 193.31,160.03C193.85,160.54 194.45,160.9 195.13,161.13C195.53,161.27 195.86,161.44 196.15,161.64C196.57,161.92 197.49,162.2 198.9,162.49C200.31,162.77 201.86,163 203.56,163.17C204.72,163.25 205.42,163.32 205.68,163.38C205.96,163.41 206.87,163.42 208.39,163.42C210.56,163.45 211.79,163.26 212.07,162.87C212.15,162.76 212.21,162.63 212.24,162.49C212.27,162.35 212.28,162.23 212.26,162.13C212.25,162.03 212.21,161.98 212.15,161.98C212.04,161.98 211.92,161.91 211.81,161.77C211.7,161.69 211.23,161.6 210.41,161.52C209.59,161.44 209.04,161.44 208.76,161.52C208.39,161.6 207.5,161.52 206.07,161.24C204.64,160.97 203.59,160.68 202.92,160.37C202.55,160.2 202.33,160.12 202.24,160.12C202.21,160.12 202.03,160.04 201.69,159.87C201.65,159.85 201.59,159.83 201.55,159.8C201.95,159.85 202.62,159.87 203.6,159.87C205.21,159.9 206.08,159.94 206.23,160C206.37,160.08 206.9,160.13 207.82,160.15C208.74,160.16 209.29,160.15 209.49,160.09C209.66,160.03 209.81,159.87 209.96,159.6C210.1,159.33 210.16,159.11 210.13,158.94C210.07,158.8 209.93,158.67 209.71,158.56C209.48,158.45 209.4,158.36 209.46,158.31C209.49,158.25 209.46,158.2 209.38,158.14C209.3,158.08 209.2,158.04 209.08,158.01C208.77,157.9 208.42,157.62 208.02,157.16C207.74,156.82 207.57,156.59 207.51,156.46C207.45,156.33 207.44,156.14 207.47,155.89C207.53,155.44 207.72,154.93 208.04,154.37C208.36,153.81 208.64,153.51 208.87,153.48C208.95,153.45 209.32,153.38 209.97,153.27C210.39,153.19 211.18,153.1 212.34,153.02C213.05,152.96 213.5,152.91 213.7,152.87C213.9,152.83 214.05,152.75 214.17,152.64L214.42,152.34L214.46,152.68C214.49,152.88 214.56,153 214.67,153.04C214.78,153.08 215.12,153.15 215.69,153.23C217.75,153.48 218.78,153.34 218.78,152.81C218.78,152.67 218.82,152.56 218.89,152.47C218.96,152.39 219.03,152.36 219.1,152.41C219.17,152.45 219.22,152.54 219.25,152.69C219.33,152.89 219.28,153.1 219.08,153.33C218.91,153.5 218.83,153.61 218.83,153.67C218.83,153.73 218.91,153.78 219.08,153.84C219.25,153.9 219.38,154.06 219.48,154.33C219.58,154.6 219.66,154.73 219.71,154.73C219.76,154.73 219.89,154.9 220.07,155.24C220.25,155.58 220.33,155.99 220.3,156.47C220.24,156.92 220.13,157.22 219.96,157.36C219.82,157.5 219.72,157.64 219.66,157.78C219.63,157.92 219.36,158.09 218.83,158.29C218.31,158.49 218.02,158.63 217.96,158.71C217.88,158.85 217.88,159.05 217.98,159.3C218.08,159.55 218.18,159.7 218.3,159.72C218.5,159.78 218.65,159.85 218.77,159.93C218.88,160.01 219.79,160.06 221.48,160.08C223.17,160.09 224.22,160.04 224.61,159.93C225.01,159.85 225.33,159.83 225.58,159.89C225.81,159.95 226.16,159.99 226.64,160.02C226.98,160.02 227.19,159.97 227.28,159.87C227.36,159.77 227.42,159.52 227.45,159.13C227.45,158.9 227.43,158.76 227.39,158.71C227.35,158.65 227.24,158.6 227.07,158.54L227.09,158.55ZM191.61,144.58C191.47,145.12 191.23,145.67 190.89,146.23C190.52,146.74 190.34,147.06 190.34,147.2C190.34,147.45 189.44,147.74 187.63,148.05C186.75,148.22 186.2,148.33 185.98,148.39C185.7,148.45 185.19,148.52 184.46,148.6L183.4,148.68L183.36,148.3C183.36,148.1 183.32,147.66 183.23,146.99C183.15,146.37 183.17,146 183.31,145.89C183.48,145.78 183.49,145.72 183.35,145.72C183.27,145.72 183.24,145.46 183.27,144.94C183.3,144.42 183.26,144.16 183.14,144.16C183,144.16 182.93,144.12 182.93,144.03C182.93,143.94 183,143.86 183.14,143.78C183.34,143.58 183.42,143.2 183.37,142.64C183.33,142.08 183.19,141.79 182.97,141.79C182.8,141.79 182.8,141.51 182.97,140.94C183.08,140.6 183.08,140.4 182.97,140.35C182.97,140.27 183.07,140.17 183.27,140.05C183.61,139.94 183.75,139.81 183.69,139.67C183.66,139.47 183.72,139.36 183.86,139.33C184.14,139.27 184.72,139.26 185.6,139.29C186.47,139.32 187.14,139.37 187.59,139.46C188.27,139.63 188.83,139.81 189.28,140.01C189.73,140.21 189.96,140.39 189.96,140.56C189.96,140.7 190.2,141.08 190.68,141.68C191.16,142.29 191.47,142.77 191.61,143.14C191.75,143.54 191.75,144.02 191.61,144.58ZM217.12,150.21C217.12,150.21 216.94,150.24 216.72,150.21C216.41,150.15 216.23,150.19 216.19,150.32C216.15,150.45 215.82,150.48 215.22,150.43C214.61,150.37 214.28,150.42 214.22,150.56C214.14,150.7 213.91,150.74 213.54,150.69C213.17,150.66 212.99,150.61 212.99,150.52C213.02,150.32 212.95,150.2 212.8,150.16C212.64,150.12 212.2,150.11 211.47,150.14C211.13,150.14 210.87,150.14 210.69,150.16C210.51,150.17 210.36,150.17 210.25,150.16C210.14,150.15 210.07,150.12 210.04,150.1C210.01,150.07 210.01,150.03 210.04,149.97C210.1,149.86 210.14,149.7 210.17,149.5C210.23,149.27 210.31,149.12 210.42,149.03C210.56,148.95 210.63,148.79 210.63,148.56C210.63,148.42 210.64,148.33 210.67,148.31C210.7,148.28 210.75,148.28 210.84,148.31C211.01,148.37 211.14,148.35 211.22,148.27C211.3,148.19 211.35,148.03 211.35,147.8C211.43,146.87 211.53,146.4 211.65,146.4C211.73,146.4 211.8,146.27 211.86,146.02C211.89,145.79 212.07,145.41 212.41,144.88C212.75,144.34 212.96,143.91 213.05,143.57C213.13,143.34 213.19,143.22 213.22,143.19C213.25,143.16 213.32,143.22 213.43,143.36C213.57,143.53 213.68,143.61 213.75,143.61C213.82,143.61 213.86,143.77 213.88,144.1C213.89,144.42 213.97,144.66 214.11,144.8C214.25,144.97 214.32,145.1 214.32,145.18C214.32,145.29 214.43,145.38 214.64,145.43C214.85,145.49 215.04,145.49 215.21,145.43C215.24,145.4 215.27,145.39 215.29,145.39C215.37,145.39 215.39,145.55 215.33,145.86C215.27,146.2 215.36,146.57 215.58,146.98C215.81,147.39 215.96,147.59 216.05,147.59C216.14,147.59 216.18,147.67 216.18,147.84C216.18,147.98 216.23,148.11 216.33,148.22C216.43,148.33 216.56,148.39 216.73,148.39C216.9,148.39 216.93,148.47 216.81,148.64C216.75,148.78 216.74,148.99 216.77,149.28C216.8,149.56 216.87,149.7 216.98,149.7C217.04,149.7 217.09,149.8 217.15,150C217.18,150.11 217.17,150.18 217.13,150.21L217.12,150.21ZM249.6,137.63C249.53,137.4 249.39,137.18 249.2,136.95C248.72,136.44 248.3,136.37 247.93,136.74C247.76,136.94 247.36,137.04 246.74,137.04C246.12,137.01 245.78,137.07 245.72,137.21C245.66,137.35 245.5,137.42 245.23,137.4C244.96,137.39 244.81,137.29 244.79,137.12C244.73,136.95 244.56,136.88 244.28,136.91C244.03,136.97 243.87,137.04 243.81,137.12C243.73,137.23 242.99,137.29 241.61,137.29C240.11,137.29 239.13,137.39 238.65,137.59C238.48,137.65 238.37,137.59 238.33,137.4C238.29,137.22 238.17,137.15 237.97,137.21C237.74,137.29 236.95,137.34 235.6,137.34C234.25,137.34 233.37,137.27 232.97,137.13C232.29,136.85 231.33,136.81 230.09,137C229.55,137.11 229.17,137.1 228.95,136.96C228.7,136.82 228.57,136.68 228.57,136.54C228.57,136.43 228.46,136.36 228.25,136.33C228.04,136.3 227.8,136.32 227.53,136.37C227.26,136.43 227.04,136.51 226.87,136.62C226.39,136.96 226.22,137.51 226.36,138.27C226.5,138.98 226.51,140.01 226.4,141.36C226.37,141.59 226.39,141.81 226.44,142.04C226.52,142.24 226.5,142.51 226.36,142.84C226.25,143.18 226.2,143.6 226.23,144.11L226.27,144.87L227.46,144.83C228.25,144.83 228.69,144.78 228.77,144.68C228.85,144.58 228.83,144.53 228.71,144.53C228.59,144.53 228.59,144.46 228.73,144.32C228.9,144.15 229,143.95 229.03,143.73C229.14,143.36 229.83,142.6 231.1,141.44C231.47,141.1 231.96,140.8 232.58,140.55C232.92,140.38 233.29,140.25 233.68,140.17C234.07,140.09 234.39,140.04 234.61,140.04C234.83,140.04 234.98,140.08 235.03,140.17C235.03,140.28 235.06,140.71 235.11,141.44C235.17,142.17 235.21,143.09 235.24,144.19C235.3,145.71 235.35,146.67 235.41,147.07C235.44,147.78 235.47,148.5 235.49,149.23C235.55,149.91 235.63,150.49 235.74,150.97C235.85,151.42 235.85,151.7 235.74,151.82C235.43,152.1 235.3,152.95 235.36,154.36C235.39,155.24 235.39,155.74 235.36,155.88C235.25,156.19 234.3,156.59 232.52,157.07C231.33,157.38 230.6,157.59 230.32,157.71C230.01,157.85 229.77,157.92 229.6,157.92C229.43,157.92 229.28,158.03 229.16,158.24C229.03,158.45 228.97,158.71 228.97,159.02C228.97,159.3 229.03,159.52 229.16,159.68C229.29,159.83 229.45,159.88 229.65,159.83C229.82,159.77 229.9,159.79 229.9,159.87C229.98,159.93 230.27,159.95 230.75,159.95C231.23,159.95 231.77,159.93 232.38,159.89C232.99,159.85 233.33,159.8 233.42,159.74C233.5,159.66 234.25,159.61 235.66,159.61L238.5,159.61C239.15,159.61 240.31,159.63 241.99,159.67C243.67,159.71 244.66,159.76 244.98,159.82C245.37,159.88 245.6,159.83 245.66,159.69C245.74,159.55 245.87,159.48 246.04,159.48C246.15,159.48 246.22,159.44 246.25,159.37C246.28,159.3 246.29,159.15 246.29,158.93C246.29,158.65 246.27,158.47 246.23,158.4C246.19,158.33 246.08,158.28 245.91,158.25C245.66,158.19 245.47,158.1 245.36,157.95C245.28,157.84 244.98,157.78 244.47,157.78C243.99,157.78 243.58,157.74 243.24,157.65C242.39,157.4 241.88,157.22 241.69,157.12C241.51,157.02 241.26,156.79 240.95,156.42C240.38,155.66 240.09,154.9 240.06,154.13C240.06,153.79 240.09,153.11 240.14,152.08C240.2,151.05 240.24,150.53 240.27,150.53C240.3,150.47 240.27,150.33 240.19,150.11C240.08,149.83 240.03,149.05 240.06,147.78C240.06,146.54 240.02,145.21 239.93,143.8C239.87,142.5 239.86,141.51 239.89,140.84L239.97,139.95L240.9,139.87C242.09,139.84 243.05,140.15 243.78,140.8C244.2,141.2 244.5,141.53 244.67,141.82C244.81,142.13 245.04,142.48 245.37,142.88C245.69,143.28 245.9,143.47 245.98,143.47C246.09,143.47 246.21,143.6 246.32,143.85C246.46,144.1 246.6,144.26 246.74,144.32C246.88,144.38 246.95,144.5 246.95,144.7C246.95,145.24 247.3,145.52 248.01,145.55C248.43,145.58 248.77,145.55 249.03,145.44C249.28,145.34 249.4,145.19 249.37,145C249.34,144.86 249.33,144.53 249.33,144.03C249.36,143.35 249.37,142.56 249.37,141.66C249.34,140.93 249.34,140.47 249.37,140.31C249.4,140.14 249.47,140.03 249.58,139.97C249.75,139.94 249.82,139.69 249.79,139.21C249.71,138.39 249.63,137.87 249.56,137.64L249.6,137.63ZM264.23,139.96C265.05,139.9 265.54,139.86 265.71,139.83C265.96,139.77 266.29,139.82 266.68,139.96C267.07,140.1 267.68,140.17 268.5,140.17C269.32,140.17 269.88,140.25 270.11,140.42C270.34,140.62 270.51,140.72 270.62,140.72C270.7,140.72 270.85,140.88 271.04,141.19C271.21,141.5 271.51,141.85 271.93,142.25C272.32,142.65 272.52,142.87 272.52,142.93C272.52,143.01 272.65,143.11 272.9,143.23C273.18,143.34 273.32,143.44 273.32,143.51C273.32,143.58 273.47,143.72 273.79,143.91C274.07,144.08 274.33,144.14 274.55,144.08C274.78,144.02 275.07,143.83 275.44,143.49C276,142.93 276.08,142.42 275.65,141.97C275.42,141.77 275.28,141.53 275.23,141.25C275.17,141 275.1,140.87 275.02,140.87C274.94,140.87 274.89,140.81 274.89,140.7C274.89,140.59 274.71,140.18 274.36,139.47C274.01,138.76 273.83,138.24 273.83,137.9C273.83,137.5 273.72,137.24 273.51,137.1C273.3,136.96 272.92,136.92 272.39,136.97C271.85,137 271.51,137.04 271.37,137.1C271.23,137.13 270.66,137.11 269.68,137.06C268.66,137 268.16,136.92 268.16,136.81C268.16,136.64 267.3,136.63 265.58,136.77C264.87,136.85 264.48,136.97 264.39,137.11C264.28,137.25 264.1,137.32 263.86,137.3C263.62,137.29 263.47,137.19 263.42,137.02C263.39,136.88 263.31,136.81 263.19,136.81C263.07,136.81 262.76,136.88 262.28,137.02C261.74,137.19 261.32,137.16 261.01,136.94C260.93,136.91 260.81,136.94 260.67,137.02C260.56,137.13 260.5,137.12 260.5,136.98C260.5,136.84 260.34,136.77 260.03,136.77C259.72,136.77 259.25,136.84 258.63,136.98C257.95,137.15 256.95,137.09 255.62,136.81C255.39,136.75 255.27,136.82 255.24,137.02C255.18,137.19 254.86,137.29 254.27,137.32C253.73,137.32 253.39,137.31 253.25,137.28C252.83,137.2 252.53,137.17 252.36,137.2C252.19,137.23 252.04,137.33 251.89,137.5C251.47,138.04 251.54,138.45 252.1,138.73C252.44,138.87 252.68,139.03 252.82,139.2C252.93,139.37 253.23,139.48 253.71,139.54C254.84,139.71 255.59,140.06 255.95,140.6C256.15,140.88 256.22,141.02 256.16,141.02C256.1,141.02 256.15,141.1 256.29,141.27C256.43,141.41 256.53,141.75 256.59,142.29C256.59,142.37 256.6,142.6 256.63,142.97C256.66,143.34 256.69,143.59 256.71,143.73C256.74,144.15 256.7,144.69 256.58,145.34C256.44,146.02 256.34,147.09 256.28,148.56C256.25,149.92 256.22,150.82 256.2,151.27C256.17,151.52 256.3,151.69 256.58,151.78C256.83,151.86 256.98,151.92 257,151.95C257.03,151.98 256.93,152.18 256.7,152.54C256.19,153.22 255.94,154.19 255.94,155.46C255.94,156.17 255.91,156.52 255.86,156.52C255.81,156.52 255.65,156.63 255.39,156.84C255.13,157.05 254.97,157.16 254.88,157.16C254.82,157.16 254.77,157.29 254.71,157.56C254.65,157.83 254.53,157.96 254.33,157.96C254.13,157.96 253.99,157.92 253.91,157.83C253.83,157.75 253.4,157.75 252.64,157.83C251.91,157.91 251.45,158.06 251.28,158.25C251.08,158.5 251.03,158.74 251.13,158.95C251.23,159.16 251.46,159.27 251.83,159.27C252,159.27 252.13,159.33 252.21,159.44C252.38,159.61 252.99,159.76 254.05,159.88C255.11,160.01 255.81,160.01 256.15,159.9C256.43,159.82 256.9,159.82 257.55,159.9C258.17,159.98 258.64,160 258.95,159.94C259.23,159.88 259.91,159.88 260.98,159.94C262.02,159.97 262.8,159.95 263.31,159.9C263.73,159.82 264.02,159.84 264.16,159.98C264.3,160.12 264.6,160.21 265.05,160.26C265.5,160.3 265.8,160.24 265.94,160.07C266.05,159.9 266.23,159.84 266.47,159.9C266.71,159.96 266.83,160.02 266.83,160.09C266.83,160.16 267.48,160.17 268.78,160.11C270.14,160.05 271.09,160.04 271.66,160.07C272.28,160.07 272.68,159.99 272.85,159.82C273.02,159.62 273.17,159.52 273.32,159.52C273.71,159.52 273.9,159.22 273.87,158.63C273.87,158.38 274.01,157.92 274.29,157.27C274.57,156.62 274.85,156.13 275.14,155.79C275.34,155.54 275.42,155.31 275.39,155.11C275.33,154.91 275.38,154.72 275.52,154.52C275.63,154.38 275.67,154.25 275.63,154.14C275.59,154.03 275.5,153.97 275.35,153.97C275.29,153.97 275.25,153.96 275.22,153.93C275.19,153.9 275.19,153.87 275.22,153.85C275.28,153.71 274.84,153.53 273.91,153.3C273.68,153.27 273.49,153.26 273.34,153.28C273.18,153.29 273.08,153.33 273.02,153.39C272.96,153.45 272.96,153.55 273.02,153.69C273.05,153.77 272.95,154.04 272.72,154.49C272.44,154.94 272.24,155.27 272.13,155.46C272.02,155.71 271.9,155.84 271.79,155.84C271.65,155.84 271.5,155.92 271.35,156.09C271.19,156.26 270.85,156.37 270.31,156.43C269.18,156.54 268.52,156.73 268.32,156.98C268.21,157.12 268.11,157.16 268.02,157.11C267.88,157.03 267.62,156.98 267.26,156.96C266.89,156.95 266.62,156.98 266.46,157.07C266.26,157.15 266.08,157.13 265.91,156.99C265.74,156.82 265.61,156.76 265.53,156.82C265.47,156.85 265.21,156.83 264.73,156.78C264.25,156.7 263.94,156.72 263.8,156.86C263.72,156.97 263.66,157.02 263.63,156.99C263.6,156.96 263.57,156.84 263.55,156.61C263.55,156.41 263.52,156.29 263.47,156.23C263.41,156.17 263.24,156.15 262.96,156.15C262.59,156.12 262.34,156.02 262.2,155.85C261.89,155.46 261.71,154.16 261.65,151.95L261.61,150.47L262.88,150.47C263.22,150.47 264.04,150.46 265.34,150.43C266.1,150.4 266.67,150.42 267.03,150.47C267.23,150.53 267.35,150.58 267.41,150.62C267.47,150.66 267.49,150.75 267.49,150.9C267.49,151.27 267.69,151.73 268.1,152.3C268.51,152.87 268.88,153.22 269.22,153.36C269.45,153.44 269.64,153.37 269.81,153.15C270.32,152.56 270.37,152.01 269.98,151.5C269.84,151.3 269.75,151.1 269.73,150.89C269.7,150.68 269.69,150.21 269.69,149.47C269.69,148.73 269.71,148.22 269.75,147.92C269.79,147.62 269.91,147.21 270.11,146.67C270.34,146.05 270.44,145.63 270.43,145.42C270.42,145.21 270.27,145.03 269.99,144.89C269.71,144.75 269.49,144.73 269.33,144.83C269.17,144.93 268.98,145.2 268.76,145.66C268.39,146.42 267.84,147.02 267.11,147.44C266.97,147.52 266.43,147.55 265.5,147.52C264.85,147.52 264.43,147.53 264.25,147.56C264.07,147.59 263.92,147.66 263.81,147.77C263.64,147.94 263.5,147.95 263.39,147.81C263.28,147.67 262.97,147.63 262.46,147.68L261.66,147.72L261.74,145.73C261.8,144.37 261.88,143.47 261.99,143.02C262.27,141.89 262.34,141.3 262.2,141.24C262.12,141.16 262.07,141.01 262.07,140.82C262.07,140.31 262.79,140.04 264.23,140.02L264.23,139.96ZM315.21,151.18C315.38,150.84 315.45,150.58 315.42,150.4C315.39,150.22 315.25,150.01 315,149.79C314.69,149.48 314.45,149.3 314.28,149.24C313.86,149.1 313.38,149.55 312.84,150.6C312.53,151.22 312.26,151.69 312.04,152C311.79,152.28 311.66,152.47 311.66,152.55C311.66,152.66 311.53,152.88 311.28,153.21C311.03,153.53 310.86,153.7 310.77,153.7C310.66,153.7 310.6,153.77 310.6,153.91C310.6,154.05 310.48,154.21 310.24,154.38C310,154.55 309.71,154.69 309.37,154.8C308.89,154.97 308.57,155.1 308.4,155.18C308.2,155.26 308.03,155.24 307.89,155.1C307.78,154.99 307.63,154.95 307.45,154.97C307.27,155 307.1,155.08 306.96,155.22C306.76,155.45 306.24,155.61 305.39,155.71C304.54,155.81 303.95,155.76 303.61,155.56C303.44,155.48 302.9,155.38 302,155.26C301.35,155.18 300.94,155.11 300.77,155.05C300.6,154.99 300.36,154.81 300.05,154.5C299.63,154.1 299.36,153.78 299.25,153.53C299.14,153.28 299.01,153.13 298.87,153.11C298.76,153.05 298.7,152.49 298.7,151.42C298.7,150.35 298.67,149.81 298.62,149.73C298.54,149.59 298.49,148.28 298.47,145.79C298.46,143.31 298.49,141.88 298.58,141.51C298.66,141.23 298.71,140.49 298.71,139.29C298.71,138.09 298.68,137.34 298.63,137.02C298.52,136.51 299.07,135.88 300.28,135.11C301.47,134.38 302.78,133.84 304.22,133.5C304.87,133.36 305.19,133.26 305.19,133.2C305.19,133.12 305.3,133.05 305.53,132.99C305.81,132.91 306,132.8 306.1,132.67C306.2,132.54 306.25,132.32 306.25,132.01C306.25,131.61 306.21,131.35 306.12,131.23C306.04,131.1 305.88,131.05 305.65,131.08C304.21,131.08 302.01,131.01 299.04,130.87L297.77,130.79L297.52,131.21C297.38,131.46 297.25,131.56 297.14,131.51C297.03,131.48 296.9,131.47 296.76,131.47C296.65,131.47 296.56,131.36 296.51,131.13C296.43,130.74 295.94,130.54 295.07,130.54C294.62,130.54 294.18,130.5 293.76,130.41C293.31,130.3 292.68,130.23 291.88,130.2C291.08,130.17 290.46,130.2 290.04,130.28C288.68,130.51 287.82,130.67 287.44,130.77C287.06,130.87 286.81,131 286.7,131.17C286.5,131.42 286.3,131.78 286.09,132.25C285.88,132.72 285.77,133.01 285.77,133.12C285.77,133.26 285.84,133.33 285.98,133.33C286.12,133.33 286.3,133.41 286.53,133.58C286.76,133.75 286.96,133.83 287.14,133.83C287.32,133.83 287.47,133.89 287.58,134C287.66,134.08 287.76,134.08 287.88,134C288.02,133.89 288.5,133.85 289.32,133.87C289.91,133.9 290.31,133.93 290.51,133.98C290.71,134.02 291,134.17 291.4,134.42C291.88,134.7 292.18,134.96 292.31,135.18C292.44,135.41 292.43,135.7 292.29,136.07C291.78,137.48 291.63,138.99 291.82,140.6C291.93,141.48 292,142.48 292.03,143.61C292.09,144.85 292.16,145.83 292.24,146.53C292.3,147.04 292.32,147.38 292.3,147.55C292.29,147.72 292.22,147.96 292.11,148.27C291.94,148.58 291.86,148.78 291.86,148.86C291.86,148.94 291.92,149.04 292.03,149.16C292.17,149.36 292.24,150.09 292.24,151.36C292.24,152.63 292.28,153.33 292.37,153.37C292.45,153.41 292.5,153.59 292.5,153.9C292.5,154.07 292.49,154.19 292.46,154.26C292.43,154.33 292.38,154.35 292.29,154.32C292.18,154.26 291.97,154.34 291.65,154.55C291.34,154.76 291.13,154.97 291.01,155.16C290.9,155.39 290.64,155.74 290.25,156.22C289.97,156.59 289.74,156.82 289.57,156.92C289.4,157.02 289.05,157.15 288.51,157.32C287.75,157.57 287.35,157.74 287.32,157.83C287.26,157.91 286.97,157.93 286.43,157.87C286.06,157.81 285.84,157.8 285.75,157.83C285.67,157.86 285.57,157.97 285.45,158.17C285.28,158.45 285.2,158.74 285.2,159.02C285.2,159.25 285.23,159.39 285.28,159.44C285.34,159.5 285.48,159.55 285.7,159.61C286.01,159.72 286.26,159.78 286.46,159.78C286.63,159.78 286.8,159.86 286.97,160.03C287.08,160.23 287.37,160.33 287.82,160.35C288.27,160.36 289.67,160.31 292.01,160.2C293.79,160.12 294.71,160.12 294.76,160.2C294.82,160.31 295.47,160.35 296.71,160.33C297.61,160.3 298.15,160.3 298.32,160.33C298.49,160.36 298.58,160.44 298.6,160.58C298.61,160.72 298.66,160.81 298.75,160.83C298.83,160.86 299.07,160.86 299.47,160.83C300.03,160.8 300.6,160.73 301.16,160.62C301.72,160.51 302.05,160.49 302.13,160.58C302.21,160.69 302.51,160.8 303.02,160.9C303.53,161 303.82,161.02 303.91,160.96C304.05,160.9 304.67,160.88 305.77,160.88C306.98,160.85 307.92,160.81 308.56,160.75C310.14,160.55 311.09,160.55 311.4,160.75C311.51,160.83 311.71,160.89 311.99,160.92C312.27,160.92 312.64,161 313.09,161.17C313.2,161.23 313.32,161.28 313.43,161.32C313.54,161.36 313.63,161.39 313.68,161.4C313.74,161.41 313.76,161.4 313.76,161.38C313.76,161.36 313.82,161.38 313.93,161.46C314.24,161.69 314.59,161.38 314.99,160.53C315.24,159.99 315.37,159.58 315.37,159.3C315.37,159.13 315.31,159.09 315.2,159.17C315.14,159.17 315.13,159.1 315.16,158.96C315.22,158.73 315.24,158.55 315.24,158.41C315.24,158.35 315.23,157.97 315.2,157.27C315.17,156.65 315.09,156.27 314.95,156.13C314.72,155.85 314.75,154.48 315.03,152.02C315.09,151.57 315.14,151.29 315.2,151.17L315.21,151.18ZM341.38,153.93C341.32,153.93 341.28,153.92 341.25,153.89C341.22,153.86 341.22,153.83 341.25,153.81C341.31,153.67 340.87,153.49 339.94,153.26C339.71,153.23 339.52,153.22 339.37,153.24C339.21,153.25 339.11,153.29 339.05,153.35C338.99,153.41 338.99,153.51 339.05,153.65C339.08,153.73 338.98,154 338.75,154.45C338.47,154.9 338.27,155.23 338.16,155.42C338.05,155.67 337.93,155.8 337.82,155.8C337.68,155.8 337.53,155.88 337.38,156.05C337.22,156.22 336.88,156.33 336.34,156.39C335.21,156.5 334.55,156.69 334.35,156.94C334.24,157.08 334.14,157.12 334.05,157.07C333.91,156.99 333.65,156.94 333.29,156.92C332.92,156.91 332.65,156.94 332.49,157.03C332.29,157.11 332.11,157.09 331.94,156.95C331.77,156.78 331.64,156.72 331.56,156.78C331.5,156.81 331.24,156.79 330.76,156.74C330.28,156.66 329.97,156.68 329.83,156.82C329.75,156.93 329.69,156.98 329.66,156.95C329.63,156.92 329.6,156.8 329.58,156.57C329.58,156.37 329.55,156.25 329.5,156.19C329.44,156.13 329.27,156.11 328.99,156.11C328.62,156.08 328.37,155.98 328.23,155.81C327.92,155.42 327.74,154.12 327.68,151.91L327.64,150.43L328.91,150.43C329.25,150.43 330.07,150.42 331.37,150.39C332.13,150.36 332.7,150.38 333.06,150.43C333.26,150.49 333.38,150.54 333.44,150.58C333.5,150.62 333.52,150.71 333.52,150.86C333.52,151.23 333.72,151.69 334.13,152.26C334.54,152.83 334.91,153.18 335.25,153.32C335.48,153.4 335.67,153.33 335.84,153.11C336.35,152.52 336.4,151.97 336.01,151.46C335.87,151.26 335.78,151.06 335.76,150.85C335.73,150.64 335.72,150.17 335.72,149.43C335.72,148.69 335.74,148.18 335.78,147.88C335.82,147.58 335.94,147.17 336.14,146.63C336.37,146.01 336.47,145.59 336.46,145.38C336.45,145.17 336.3,144.99 336.02,144.85C335.74,144.71 335.52,144.69 335.36,144.79C335.2,144.89 335.01,145.16 334.79,145.62C334.42,146.38 333.87,146.98 333.14,147.4C333,147.48 332.46,147.51 331.53,147.48C330.88,147.48 330.46,147.49 330.28,147.52C330.1,147.55 329.95,147.62 329.84,147.73C329.67,147.9 329.53,147.91 329.42,147.77C329.31,147.63 329,147.59 328.49,147.64L327.69,147.68L327.77,145.69C327.83,144.33 327.91,143.43 328.02,142.98C328.3,141.85 328.37,141.26 328.23,141.2C328.15,141.12 328.1,140.97 328.1,140.78C328.1,140.27 328.82,140 330.26,139.98C331.08,139.92 331.57,139.88 331.74,139.85C331.99,139.79 332.32,139.84 332.71,139.98C333.1,140.12 333.71,140.19 334.53,140.19C335.35,140.19 335.91,140.27 336.14,140.44C336.37,140.64 336.53,140.74 336.65,140.74C336.73,140.74 336.88,140.9 337.07,141.21C337.24,141.52 337.54,141.87 337.96,142.27C338.35,142.67 338.55,142.89 338.55,142.95C338.55,143.03 338.68,143.13 338.93,143.25C339.21,143.36 339.35,143.46 339.35,143.53C339.35,143.6 339.5,143.74 339.82,143.93C340.1,144.1 340.36,144.16 340.58,144.1C340.81,144.04 341.1,143.85 341.47,143.51C342.03,142.95 342.11,142.44 341.68,141.99C341.45,141.79 341.31,141.55 341.26,141.27C341.2,141.02 341.13,140.89 341.05,140.89C340.97,140.89 340.92,140.83 340.92,140.72C340.92,140.61 340.74,140.2 340.39,139.49C340.04,138.78 339.86,138.26 339.86,137.92C339.86,137.52 339.75,137.26 339.54,137.12C339.33,136.98 338.95,136.94 338.42,136.99C337.88,137.02 337.54,137.06 337.4,137.12C337.26,137.15 336.69,137.13 335.71,137.08C334.69,137.02 334.19,136.94 334.19,136.83C334.19,136.66 333.33,136.65 331.61,136.79C330.9,136.87 330.51,136.99 330.42,137.13C330.31,137.27 330.13,137.34 329.89,137.32C329.65,137.31 329.5,137.21 329.45,137.04C329.42,136.9 329.34,136.83 329.22,136.83C329.1,136.83 328.79,136.9 328.31,137.04C327.77,137.21 327.35,137.18 327.04,136.96C326.96,136.93 326.84,136.96 326.7,137.04C326.59,137.15 326.53,137.14 326.53,137C326.53,136.86 326.37,136.79 326.06,136.79C325.75,136.79 325.28,136.86 324.66,137C323.98,137.17 322.98,137.11 321.65,136.83C321.42,136.77 321.3,136.84 321.27,137.04C321.21,137.21 320.89,137.31 320.3,137.34C319.76,137.34 319.42,137.33 319.28,137.3C318.86,137.22 318.56,137.19 318.39,137.22C318.22,137.25 318.07,137.35 317.92,137.52C317.5,138.06 317.57,138.47 318.13,138.75C318.47,138.89 318.71,139.05 318.85,139.22C318.96,139.39 319.26,139.5 319.74,139.56C320.87,139.73 321.62,140.08 321.98,140.62C322.18,140.9 322.25,141.04 322.19,141.04C322.13,141.04 322.18,141.12 322.32,141.29C322.46,141.43 322.56,141.77 322.62,142.31C322.62,142.39 322.63,142.62 322.66,142.99C322.69,143.36 322.72,143.61 322.74,143.75C322.77,144.17 322.73,144.71 322.61,145.36C322.47,146.04 322.37,147.11 322.31,148.58C322.28,149.94 322.25,150.84 322.23,151.29C322.2,151.54 322.33,151.71 322.61,151.8C322.86,151.88 323,151.94 323.03,151.97C323.06,152 322.96,152.2 322.73,152.56C322.22,153.24 321.97,154.21 321.97,155.48C321.97,156.19 321.94,156.54 321.89,156.54C321.84,156.54 321.68,156.65 321.42,156.86C321.16,157.07 321,157.18 320.91,157.18C320.85,157.18 320.8,157.31 320.74,157.58C320.68,157.85 320.56,157.98 320.36,157.98C320.16,157.98 320.02,157.94 319.94,157.85C319.86,157.76 319.43,157.77 318.67,157.85C317.94,157.93 317.48,158.08 317.31,158.27C317.11,158.52 317.06,158.76 317.16,158.97C317.26,159.18 317.49,159.29 317.86,159.29C318.03,159.29 318.16,159.35 318.24,159.46C318.41,159.63 319.02,159.78 320.08,159.9C321.14,160.03 321.84,160.03 322.18,159.92C322.46,159.84 322.93,159.84 323.58,159.92C324.2,160 324.67,160.02 324.98,159.96C325.26,159.9 325.94,159.9 327.01,159.96C328.05,159.99 328.83,159.97 329.34,159.92C329.76,159.84 330.05,159.86 330.19,160C330.33,160.14 330.63,160.23 331.08,160.28C331.53,160.32 331.83,160.26 331.97,160.09C332.08,159.92 332.26,159.86 332.5,159.92C332.74,159.98 332.86,160.04 332.86,160.11C332.86,160.18 333.51,160.19 334.81,160.13C336.17,160.07 337.12,160.06 337.69,160.09C338.31,160.09 338.71,160.01 338.88,159.84C339.05,159.64 339.2,159.54 339.35,159.54C339.75,159.54 339.93,159.24 339.9,158.65C339.9,158.4 340.04,157.94 340.32,157.29C340.6,156.64 340.88,156.15 341.17,155.81C341.37,155.56 341.45,155.33 341.42,155.13C341.36,154.93 341.41,154.74 341.55,154.54C341.66,154.4 341.7,154.27 341.66,154.16C341.62,154.05 341.53,153.99 341.38,153.99L341.38,153.93ZM367.42,149.78C367.31,149.75 366.66,149.78 365.47,149.86C363.83,149.97 362.14,150.02 360.39,149.99C358.22,149.96 356.82,150.06 356.2,150.29C356.06,150.35 355.93,150.56 355.82,150.93C355.68,151.35 355.72,151.61 355.95,151.71C356.18,151.81 356.85,151.86 357.98,151.86C358.88,151.89 359.46,151.92 359.72,151.94C359.97,151.97 360.26,152.07 360.57,152.24C360.88,152.41 361.07,152.54 361.14,152.62C361.21,152.7 361.25,152.85 361.25,153.04C361.25,153.32 361.32,153.59 361.46,153.84C361.57,154.04 361.65,154.3 361.69,154.62C361.73,154.94 361.71,155.14 361.63,155.19C361.57,155.25 361.62,155.33 361.76,155.44C361.9,155.55 361.93,155.62 361.84,155.65C361.7,155.65 361.56,155.83 361.42,156.2C360.94,157.27 359.84,158.08 358.12,158.61C357.67,158.75 357.03,158.81 356.21,158.78C354.97,158.72 353.94,158.36 353.12,157.68C352.75,157.37 352.5,157.21 352.36,157.21C352.28,157.21 352.04,157.08 351.64,156.83C351.24,156.58 350.96,156.36 350.79,156.19C350.73,156.16 350.63,156.06 350.47,155.89C350.31,155.72 350.19,155.59 350.11,155.51C349.83,155.23 349.59,155.06 349.39,155C349.19,154.94 349.09,154.77 349.09,154.49C349.09,154.26 349.03,154.01 348.92,153.73C348.78,153.48 348.69,153.24 348.67,153.01C348.61,152.76 348.51,152.47 348.37,152.16C348.2,151.85 348.1,151.49 348.07,151.08C348.04,150.67 348.04,149.87 348.07,148.69C348.1,147.7 348.21,147.02 348.41,146.66C348.61,146.26 348.71,145.93 348.71,145.64C348.71,145.33 348.74,145.17 348.79,145.17C348.87,145.17 348.9,144.82 348.87,144.11C348.84,143.4 348.88,143 349,142.88C349.14,142.74 349.21,142.64 349.21,142.58C349.21,142.5 349.49,142.14 350.06,141.52C350.62,140.9 351.02,140.5 351.25,140.33C351.81,139.96 352.44,139.71 353.11,139.57C353.53,139.49 353.82,139.38 353.98,139.25C354.13,139.12 354.61,139.03 355.4,138.97L356.63,138.89L356.76,139.23C356.82,139.4 356.92,139.51 357.08,139.55C357.23,139.59 357.72,139.61 358.54,139.61C359.3,139.64 359.76,139.67 359.92,139.69C360.07,139.72 360.17,139.8 360.2,139.94C360.23,140.14 360.28,140.24 360.37,140.24C360.46,140.24 360.5,140.29 360.5,140.39C360.5,140.49 360.61,140.67 360.84,140.92C361.04,141.17 361.14,141.4 361.14,141.6C361.14,141.77 361.22,141.94 361.39,142.11C361.56,142.28 361.67,142.89 361.73,143.93L361.86,145.54L362.33,145.67C363.06,145.87 363.5,145.87 363.64,145.67C363.67,145.56 363.77,145.53 363.94,145.59C364.31,145.7 364.52,145.49 364.58,144.95C364.58,144.64 364.62,144.43 364.71,144.31C364.79,144.2 364.98,143.73 365.26,142.91C365.54,142.15 365.73,141.65 365.83,141.43C365.93,141.2 366.06,141.04 366.21,140.94C366.36,140.84 366.44,140.68 366.44,140.45C366.44,140.22 366.5,140.1 366.61,140.07C366.72,139.99 366.69,139.72 366.53,139.27C366.47,139.13 366.5,138.99 366.61,138.85C366.75,138.68 366.72,138.34 366.5,137.83C366.29,137.32 366.07,137.07 365.84,137.07C365.7,137.07 365.44,137.17 365.08,137.37C364.46,137.71 363.84,137.72 363.22,137.41C362.94,137.27 362.47,137.17 361.82,137.11C361.17,137.05 360.73,136.97 360.51,136.86C360.34,136.72 359.93,136.58 359.28,136.46C358.63,136.33 358.09,136.27 357.67,136.27C356.57,136.27 356.02,136.17 356.02,135.97C356.02,135.83 355.94,135.74 355.77,135.72C355.63,135.66 355.52,135.66 355.43,135.72C355.32,135.83 354.77,135.95 353.8,136.08C352.83,136.21 352.3,136.23 352.21,136.14C352.13,136.08 351.84,136.08 351.34,136.14C350.85,136.2 350.39,136.28 349.96,136.39C349.62,136.5 349.26,136.65 348.88,136.83C348.5,137.01 348.28,137.16 348.22,137.27C348.14,137.38 347.8,137.58 347.2,137.86C346.55,138.14 346.17,138.34 346.06,138.45C345.92,138.62 345.74,138.77 345.51,138.92C345.26,139.12 344.94,139.49 344.58,140.02C344.21,140.56 343.99,140.86 343.9,140.93C343.82,141 343.76,141.06 343.73,141.12C343.7,141.46 343.55,141.67 343.26,141.76C343.09,141.82 343.03,141.89 343.09,141.97C343.12,142.03 343.08,142.08 342.96,142.14C342.82,142.2 342.75,142.32 342.75,142.52C342.72,142.75 342.64,143.03 342.5,143.37C342.33,143.68 342.23,143.94 342.2,144.13C342.2,144.27 342.1,144.5 341.9,144.81C341.56,145.32 341.49,145.63 341.69,145.74C341.8,145.8 341.83,146.32 341.77,147.31C341.69,148.24 341.64,148.82 341.64,149.05C341.72,150.4 341.88,151.44 342.11,152.14L342.45,153.11L342.11,153.45C341.94,153.62 341.85,153.8 341.83,153.98C341.82,154.16 341.89,154.28 342.06,154.34C342.29,154.42 342.55,154.85 342.86,155.61C342.97,155.92 343.29,156.33 343.81,156.84C344.33,157.35 344.86,157.76 345.4,158.07C346.08,158.47 346.47,158.66 346.59,158.66C346.67,158.66 346.72,158.74 346.72,158.91C346.72,159.08 346.79,159.16 346.93,159.16C347.1,159.16 347.34,159.31 347.65,159.63C347.96,159.97 348.24,160.19 348.5,160.31C348.78,160.45 349.21,160.63 349.79,160.84C350.37,161.05 350.73,161.16 350.87,161.16C351.04,161.16 351.32,161.26 351.72,161.46L352.31,161.71L352.61,161.41C352.81,161.24 353.08,161.2 353.41,161.28C353.72,161.36 354.44,161.43 355.57,161.49C357.49,161.6 359.01,161.43 360.14,160.98C360.53,160.84 361,160.78 361.54,160.81C362.08,160.84 362.54,160.95 362.94,161.15C363.59,161.49 364.07,161.55 364.38,161.32C364.49,161.24 364.64,161.03 364.82,160.71C365,160.39 365.1,160.17 365.1,160.05C365.1,159.91 365.14,159.82 365.23,159.8C365.34,159.77 365.41,159.6 365.44,159.29C365.47,158.98 365.44,158.77 365.38,158.65C365.31,158.54 365.36,158.21 365.53,157.68C365.7,157.09 365.81,156.47 365.87,155.82C365.93,155.14 365.98,154.8 366.04,154.8C366.1,154.8 366.15,154.72 366.21,154.55C366.24,154.38 366.17,154.27 366,154.21C365.86,154.18 365.79,154.15 365.79,154.13C365.79,154.11 366,154.02 366.43,153.88C366.54,153.82 366.61,153.77 366.62,153.73C366.63,153.69 366.62,153.61 366.56,153.5C366.45,153.33 366.46,153.19 366.6,153.08L366.64,153.04L366.34,153.04C366.14,153.07 366.02,153.08 365.98,153.06C365.94,153.05 365.93,153 365.96,152.91C366.02,152.77 366.04,152.67 366.04,152.61C366.04,152.58 366.17,152.57 366.42,152.57C366.56,152.57 366.67,152.54 366.76,152.49C366.84,152.43 366.87,152.37 366.84,152.3C366.81,152.23 366.74,152.17 366.63,152.11C366.55,152.08 366.5,152.03 366.5,151.96C366.5,151.89 366.54,151.81 366.61,151.73C366.68,151.65 366.79,151.59 366.93,151.56C367.13,151.5 367.28,151.41 367.37,151.26C367.47,151.12 367.55,150.87 367.6,150.5C367.63,150.05 367.57,149.79 367.43,149.74L367.42,149.78ZM393.84,158.55C393.56,158.47 393.18,158.25 392.7,157.91C392.22,157.6 391.98,157.32 391.98,157.06C391.95,156.83 391.87,156.65 391.73,156.51C391.56,156.34 391.5,156.09 391.56,155.75C391.62,155.41 391.57,155.24 391.43,155.24C391.32,155.24 391.23,155.13 391.18,154.9C391.1,154.53 390.81,153.9 390.33,152.99C390.16,152.74 390.08,152.51 390.08,152.31C390.08,152.17 390.01,152.07 389.87,152.01C389.76,151.98 389.67,151.76 389.62,151.33C389.56,150.85 389.44,150.38 389.26,149.91C389.08,149.44 388.93,149.2 388.82,149.17C388.68,149.11 388.65,149.03 388.74,148.92C388.88,148.69 388.74,148.5 388.32,148.33C388.15,148.27 388.11,148.16 388.19,147.99C388.27,147.85 388.21,147.68 388,147.48C387.79,147.28 387.63,147.18 387.53,147.18C387.43,147.18 387.44,147.1 387.55,146.93C387.63,146.79 387.58,146.65 387.38,146.51C387.21,146.34 387.18,146.16 387.3,145.96L387.34,145.75C387.34,145.75 387.26,145.77 387.17,145.73C387.09,145.69 387.02,145.62 386.98,145.54C386.94,145.46 386.93,145.39 386.96,145.33C387.02,145.25 387.09,145.22 387.17,145.25C387.23,145.31 387.25,145.31 387.25,145.25C387.33,145.11 387.29,144.97 387.12,144.83C386.98,144.72 386.84,144.69 386.7,144.75C386.62,144.78 386.57,144.79 386.55,144.77C386.54,144.76 386.6,144.69 386.74,144.58C386.97,144.38 387.01,144.24 386.87,144.16C386.76,144.08 386.73,144.03 386.79,144.03C386.87,144.03 386.87,143.99 386.79,143.9C386.56,143.62 386.32,143.48 386.07,143.48C385.99,143.48 386,143.4 386.11,143.23C386.31,143.06 386.36,142.88 386.28,142.68C386.14,142.45 385.95,142.28 385.71,142.15C385.47,142.02 385.27,142 385.1,142.09C385.02,142.12 384.97,142.13 384.95,142.11C384.94,142.1 385.01,142.02 385.18,141.88C385.38,141.63 385.45,141.44 385.39,141.33C385.33,141.19 385.39,141.08 385.56,140.99C385.7,140.88 385.71,140.81 385.6,140.78C385.49,140.72 385.43,140.6 385.43,140.4C385.43,140.2 385.36,139.94 385.22,139.62C385.08,139.3 384.97,139.13 384.88,139.13C384.79,139.13 384.75,139.06 384.75,138.92C384.75,138.81 384.71,138.77 384.62,138.79C384.59,138.82 384.56,138.83 384.54,138.81C384.51,138.8 384.51,138.76 384.54,138.7C384.54,138.59 384.5,138.42 384.41,138.19C384.3,137.94 384.27,137.75 384.33,137.64C384.36,137.53 384.27,137.32 384.08,137C383.88,136.69 383.71,136.52 383.57,136.49C383.43,136.49 383.22,136.6 382.93,136.83C382.65,137.11 382.34,137.32 382,137.47C381.63,137.64 381.45,137.77 381.45,137.85C381.45,137.91 381.39,137.93 381.28,137.93C381.17,137.93 380.71,138.23 379.92,138.82C379.24,139.36 378.83,139.67 378.69,139.77C378.55,139.87 378.35,139.93 378.1,139.96C377.85,140.02 377.75,140.16 377.8,140.38C377.86,140.58 377.76,140.86 377.5,141.23C377.22,141.63 377.08,141.89 377.08,142.03C377.08,142.17 377.04,142.28 376.95,142.37C376.89,142.4 376.77,142.69 376.57,143.26C376.37,143.83 376.17,144.14 375.98,144.19C375.78,144.25 375.68,144.39 375.68,144.61C375.68,144.83 375.62,144.98 375.51,145.03C375.43,145.09 375.31,145.31 375.17,145.69C375.03,146.07 374.96,146.35 374.96,146.52C374.96,146.69 374.88,146.84 374.71,146.96C374.54,147.09 374.48,147.22 374.54,147.36C374.6,147.5 374.55,147.66 374.41,147.83C374.27,147.97 374.2,148.07 374.2,148.13C374.2,148.19 374.1,148.53 373.9,149.15C373.79,149.52 373.68,149.7 373.58,149.7C373.48,149.7 373.35,149.76 373.18,149.87C373.01,150.01 372.98,150.14 373.1,150.25C373.21,150.39 372.94,151.1 372.3,152.37C372.13,152.68 372.05,152.91 372.05,153.07C372.05,153.23 371.95,153.51 371.75,153.94C371.55,154.36 371.38,154.63 371.24,154.74C371.13,154.85 371,155.06 370.86,155.38C370.75,155.66 370.58,155.96 370.35,156.27C370.12,156.58 369.96,156.74 369.86,156.74C369.76,156.74 369.65,156.81 369.54,156.95C369.43,157.09 369.44,157.27 369.58,157.5C369.78,157.84 369.84,158.06 369.77,158.16C369.7,158.26 369.47,158.32 369.07,158.35C368.48,158.43 368.12,158.51 367.99,158.58C367.86,158.65 367.78,158.81 367.76,159.07C367.68,159.47 367.76,159.71 368.01,159.79C368.26,159.87 369.05,159.92 370.38,159.92C371.99,159.95 372.86,159.99 373.01,160.05C373.15,160.13 373.68,160.18 374.6,160.2C375.52,160.21 376.07,160.2 376.27,160.14C376.44,160.08 376.59,159.92 376.74,159.65C376.88,159.38 376.94,159.16 376.91,158.99C376.85,158.85 376.71,158.72 376.49,158.61C376.26,158.5 376.18,158.41 376.24,158.36C376.27,158.3 376.24,158.25 376.16,158.19C376.08,158.13 375.98,158.09 375.86,158.06C375.55,157.95 375.2,157.67 374.8,157.21C374.52,156.87 374.35,156.64 374.29,156.51C374.23,156.38 374.22,156.19 374.25,155.94C374.31,155.49 374.5,154.98 374.82,154.42C375.14,153.86 375.42,153.56 375.65,153.53C375.73,153.5 376.1,153.43 376.75,153.32C377.17,153.24 377.96,153.15 379.12,153.07C379.83,153.01 380.28,152.96 380.48,152.92C380.68,152.88 380.83,152.8 380.95,152.69L381.2,152.39L381.24,152.73C381.27,152.93 381.34,153.05 381.45,153.09C381.56,153.13 381.9,153.2 382.47,153.28C384.53,153.53 385.56,153.39 385.56,152.86C385.56,152.72 385.6,152.61 385.67,152.52C385.74,152.44 385.81,152.41 385.88,152.46C385.95,152.5 386,152.59 386.03,152.74C386.11,152.94 386.06,153.15 385.86,153.38C385.69,153.55 385.61,153.66 385.61,153.72C385.61,153.78 385.69,153.83 385.86,153.89C386.03,153.95 386.16,154.11 386.26,154.38C386.36,154.65 386.44,154.78 386.49,154.78C386.54,154.78 386.67,154.95 386.85,155.29C387.03,155.63 387.11,156.04 387.08,156.52C387.02,156.97 386.91,157.27 386.74,157.41C386.6,157.55 386.5,157.69 386.44,157.83C386.41,157.97 386.14,158.14 385.61,158.34C385.09,158.54 384.8,158.68 384.74,158.76C384.66,158.9 384.66,159.1 384.76,159.35C384.86,159.6 384.96,159.75 385.08,159.77C385.28,159.83 385.43,159.9 385.55,159.98C385.66,160.06 386.57,160.11 388.26,160.13C389.95,160.14 391,160.09 391.39,159.98C391.79,159.9 392.11,159.88 392.36,159.94C392.59,160 392.94,160.04 393.42,160.07C393.76,160.07 393.97,160.02 394.06,159.92C394.14,159.82 394.2,159.57 394.23,159.18C394.23,158.95 394.21,158.81 394.17,158.76C394.13,158.7 394.02,158.65 393.85,158.59L393.84,158.55ZM383.87,150.21C383.87,150.21 383.69,150.24 383.47,150.21C383.16,150.15 382.98,150.19 382.94,150.32C382.9,150.45 382.57,150.48 381.97,150.43C381.36,150.37 381.03,150.42 380.97,150.56C380.89,150.7 380.66,150.74 380.29,150.69C379.92,150.66 379.74,150.61 379.74,150.52C379.77,150.32 379.7,150.2 379.55,150.16C379.39,150.12 378.95,150.11 378.22,150.14C377.88,150.14 377.62,150.14 377.44,150.16C377.26,150.17 377.11,150.17 377,150.16C376.89,150.15 376.82,150.12 376.79,150.1C376.76,150.07 376.76,150.03 376.79,149.97C376.85,149.86 376.89,149.7 376.92,149.5C376.98,149.27 377.06,149.12 377.17,149.03C377.31,148.95 377.38,148.79 377.38,148.56C377.38,148.42 377.39,148.33 377.42,148.31C377.45,148.29 377.5,148.28 377.59,148.31C377.76,148.37 377.89,148.35 377.97,148.27C378.05,148.19 378.1,148.03 378.1,147.8C378.18,146.87 378.28,146.4 378.4,146.4C378.48,146.4 378.55,146.27 378.61,146.02C378.64,145.79 378.82,145.41 379.16,144.88C379.5,144.34 379.71,143.91 379.8,143.57C379.88,143.34 379.94,143.22 379.97,143.19C380,143.16 380.07,143.22 380.18,143.36C380.32,143.53 380.43,143.61 380.5,143.61C380.57,143.61 380.61,143.77 380.63,144.1C380.64,144.42 380.72,144.66 380.86,144.8C381,144.97 381.07,145.1 381.07,145.18C381.07,145.29 381.18,145.38 381.39,145.43C381.6,145.49 381.79,145.49 381.96,145.43C381.99,145.4 382.02,145.39 382.04,145.39C382.12,145.39 382.14,145.55 382.08,145.86C382.02,146.2 382.11,146.57 382.33,146.98C382.56,147.39 382.71,147.59 382.8,147.59C382.89,147.59 382.93,147.67 382.93,147.84C382.93,147.98 382.98,148.11 383.08,148.22C383.18,148.33 383.31,148.39 383.48,148.39C383.65,148.39 383.68,148.47 383.56,148.64C383.5,148.78 383.49,148.99 383.52,149.28C383.55,149.56 383.62,149.7 383.73,149.7C383.79,149.7 383.84,149.8 383.9,150C383.93,150.11 383.92,150.18 383.88,150.21L383.87,150.21ZM418.25,137.89C418.04,137.38 417.82,137.13 417.59,137.13C417.45,137.13 417.19,137.23 416.83,137.43C416.21,137.77 415.59,137.78 414.97,137.47C414.69,137.33 414.22,137.23 413.57,137.17C412.92,137.11 412.48,137.03 412.26,136.92C412.09,136.78 411.68,136.64 411.03,136.52C410.38,136.39 409.84,136.33 409.42,136.33C408.32,136.33 407.77,136.23 407.77,136.03C407.77,135.89 407.69,135.8 407.52,135.78C407.38,135.72 407.27,135.72 407.18,135.78C407.07,135.89 406.52,136.01 405.55,136.14C404.58,136.27 404.05,136.29 403.96,136.2C403.88,136.14 403.59,136.14 403.09,136.2C402.6,136.26 402.14,136.34 401.71,136.45C401.37,136.56 401.01,136.71 400.63,136.89C400.25,137.07 400.03,137.22 399.97,137.33C399.89,137.44 399.55,137.64 398.95,137.92C398.3,138.2 397.92,138.4 397.81,138.51C397.67,138.68 397.49,138.83 397.26,138.98C397.01,139.18 396.69,139.55 396.33,140.08C395.96,140.62 395.74,140.92 395.65,140.99C395.57,141.06 395.51,141.12 395.48,141.18C395.45,141.52 395.3,141.73 395.01,141.82C394.84,141.88 394.78,141.95 394.84,142.03C394.87,142.09 394.83,142.14 394.71,142.2C394.57,142.26 394.5,142.38 394.5,142.58C394.47,142.81 394.39,143.09 394.25,143.43C394.08,143.74 393.98,144 393.95,144.19C393.95,144.33 393.85,144.56 393.65,144.87C393.31,145.38 393.24,145.69 393.44,145.8C393.55,145.86 393.58,146.38 393.52,147.37C393.44,148.3 393.39,148.88 393.39,149.11C393.47,150.46 393.63,151.5 393.86,152.2L394.2,153.17L393.86,153.51C393.69,153.68 393.6,153.86 393.58,154.04C393.57,154.22 393.64,154.34 393.81,154.4C394.04,154.48 394.3,154.91 394.61,155.67C394.72,155.98 395.04,156.39 395.56,156.9C396.08,157.41 396.61,157.82 397.15,158.13C397.83,158.53 398.22,158.72 398.34,158.72C398.42,158.72 398.47,158.8 398.47,158.97C398.47,159.14 398.54,159.22 398.68,159.22C398.85,159.22 399.09,159.37 399.4,159.69C399.71,160.03 399.99,160.25 400.25,160.37C400.53,160.51 400.96,160.69 401.54,160.9C402.12,161.11 402.48,161.22 402.62,161.22C402.79,161.22 403.07,161.32 403.47,161.52L404.06,161.77L404.36,161.47C404.56,161.3 404.83,161.26 405.16,161.34C405.55,161.45 406.32,161.53 407.47,161.57C408.61,161.61 409.45,161.59 409.99,161.51C410.84,161.37 411.36,161.3 411.56,161.3C412.89,161.13 413.9,160.9 414.61,160.62C414.89,160.48 415.2,160.41 415.54,160.41C415.85,160.41 416.07,160.35 416.2,160.22C416.33,160.09 416.46,160.03 416.6,160.03C416.71,160.03 416.84,159.99 416.98,159.9C417.06,159.84 417.13,159.66 417.17,159.35C417.21,159.04 417.2,158.83 417.13,158.71C417.06,158.6 417.11,158.27 417.28,157.74C417.48,157.2 417.58,156.24 417.6,154.84C417.61,153.44 417.55,152.59 417.41,152.28C417.16,151.8 416.55,151.63 415.59,151.77C415.19,151.8 414.93,151.95 414.79,152.24C414.68,152.52 414.66,152.72 414.75,152.83C414.86,152.97 414.89,153.23 414.83,153.59C414.77,153.96 414.67,154.2 414.53,154.31C414.36,154.42 414.28,154.51 414.28,154.56C414.36,154.87 414.17,155.2 413.69,155.53C413.44,155.73 413.24,155.98 413.1,156.29C412.7,157.28 411.63,158.05 409.88,158.62C409.43,158.76 408.79,158.82 407.97,158.79C406.73,158.73 405.7,158.37 404.88,157.69C404.51,157.38 404.26,157.22 404.12,157.22C404.04,157.22 403.8,157.09 403.4,156.84C403,156.59 402.72,156.37 402.55,156.2C402.49,156.17 402.39,156.07 402.23,155.9C402.07,155.73 401.95,155.6 401.87,155.52C401.59,155.24 401.35,155.07 401.15,155.01C400.95,154.95 400.85,154.78 400.85,154.5C400.85,154.27 400.79,154.02 400.68,153.74C400.54,153.49 400.45,153.25 400.43,153.02C400.37,152.77 400.27,152.48 400.13,152.17C399.96,151.86 399.86,151.5 399.83,151.09C399.8,150.68 399.8,149.88 399.83,148.7C399.86,147.71 399.97,147.03 400.17,146.67C400.37,146.27 400.47,145.94 400.47,145.65C400.47,145.34 400.5,145.18 400.55,145.18C400.63,145.18 400.66,144.83 400.63,144.12C400.6,143.41 400.64,143.01 400.76,142.89C400.9,142.75 400.97,142.65 400.97,142.59C400.97,142.51 401.25,142.15 401.82,141.53C402.38,140.91 402.78,140.51 403.01,140.34C403.57,139.97 404.2,139.72 404.87,139.58C405.29,139.5 405.58,139.39 405.74,139.26C405.89,139.13 406.37,139.04 407.16,138.98L408.39,138.9L408.52,139.24C408.58,139.41 408.68,139.52 408.84,139.56C408.99,139.6 409.48,139.62 410.3,139.62C411.06,139.65 411.52,139.68 411.68,139.7C411.83,139.73 411.93,139.81 411.96,139.95C411.99,140.15 412.04,140.25 412.13,140.25C412.22,140.25 412.26,140.3 412.26,140.4C412.26,140.5 412.37,140.68 412.6,140.93C412.8,141.18 412.9,141.41 412.9,141.61C412.9,141.78 412.98,141.95 413.15,142.12C413.32,142.29 413.43,142.9 413.49,143.94L413.62,145.55L414.09,145.68C414.82,145.88 415.26,145.88 415.4,145.68C415.43,145.57 415.53,145.54 415.7,145.6C416.07,145.71 416.28,145.5 416.34,144.96C416.34,144.65 416.38,144.44 416.47,144.32C416.55,144.21 416.74,143.74 417.02,142.92C417.3,142.16 417.49,141.66 417.59,141.44C417.69,141.21 417.82,141.05 417.97,140.95C418.12,140.85 418.2,140.69 418.2,140.46C418.2,140.23 418.26,140.11 418.37,140.08C418.48,140 418.45,139.73 418.29,139.28C418.23,139.14 418.26,139 418.37,138.86C418.51,138.69 418.48,138.35 418.26,137.84L418.25,137.89ZM449.18,137.85C448.67,137.6 446.55,137.5 442.83,137.55C441.45,137.55 440.67,137.49 440.5,137.38C440.33,137.27 440.13,137.28 439.91,137.42C439.71,137.56 439.39,137.59 438.94,137.5C438.54,137.44 437.87,137.44 436.91,137.5C436.26,137.53 435.86,137.56 435.7,137.61C435.54,137.65 435.37,137.79 435.17,138.01C434.46,138.83 434.8,139.31 436.19,139.45C436.7,139.53 437.09,139.62 437.38,139.7C437.66,139.84 437.83,139.96 437.89,140.06C437.95,140.16 437.93,140.29 437.85,140.46C437.77,140.63 437.57,140.93 437.26,141.35C436.84,141.92 436.6,142.3 436.54,142.49C436.48,142.69 436.57,142.84 436.79,142.96C437.16,143.16 436.99,143.36 436.28,143.55C435.94,143.63 435.7,143.82 435.56,144.1C435.48,144.3 435.31,144.57 435.05,144.9L434.71,145.28L434.41,144.86C434.21,144.58 434.04,144.22 433.9,143.8C433.73,143.38 433.58,143.15 433.43,143.12C433.29,143.06 433.16,142.91 433.05,142.65C432.99,142.48 432.85,142.22 432.63,141.87C432.4,141.52 432.22,141.28 432.08,141.17C431.57,140.69 431.32,140.24 431.32,139.81C431.32,139.61 431.35,139.49 431.4,139.43C431.46,139.37 431.6,139.33 431.82,139.3C432.16,139.24 432.41,139.15 432.58,139C432.72,138.86 432.79,138.63 432.79,138.32C432.79,138.01 432.71,137.77 432.54,137.6C432.34,137.43 432.02,137.37 431.57,137.43C431.12,137.51 430.3,137.56 429.11,137.56C427.92,137.56 426.96,137.53 426.23,137.48C425.64,137.45 424.62,137.4 423.18,137.31L421.27,137.23L420.93,137.78C420.53,138.35 420.55,138.74 420.97,138.97C421.11,139.03 421.41,139.11 421.86,139.22C422.31,139.33 422.64,139.39 422.83,139.39C423.08,139.42 423.36,139.53 423.66,139.73C423.96,139.93 424.15,140.03 424.25,140.03C424.35,140.03 424.44,140.13 424.53,140.33C424.61,140.5 424.78,140.6 425.04,140.63C425.29,140.69 425.49,140.77 425.63,140.88C425.77,140.99 426.1,141.18 426.6,141.43C427.11,141.68 427.36,141.85 427.36,141.94C427.36,142.03 427.49,142.22 427.74,142.53C428.02,142.93 428.23,143.26 428.38,143.55C428.86,144.45 429.35,145.16 429.86,145.67C430.14,145.92 430.35,146.21 430.47,146.52C430.6,146.83 430.91,147.23 431.42,147.71C431.53,147.82 431.65,147.94 431.76,148.07C431.87,148.2 431.95,148.3 431.99,148.37C432.03,148.44 432.04,148.48 432.01,148.48C431.9,148.59 431.88,148.8 431.97,149.12C432,149.23 432,149.32 431.97,149.37C431.97,149.45 432.01,149.55 432.1,149.67C432.21,149.78 432.21,150.02 432.1,150.39C431.99,150.76 431.94,151.56 431.95,152.8C431.96,154.04 432.03,154.9 432.14,155.38C432.25,155.86 432.25,156.13 432.14,156.18C432.03,156.21 431.86,156.32 431.63,156.52C431.4,156.72 431.28,157.06 431.25,157.54C431.22,158.02 431.26,158.32 431.38,158.43C431.44,158.49 431.46,158.53 431.46,158.56C431.46,158.62 431.22,158.63 430.74,158.6C430.2,158.57 429.86,158.61 429.72,158.73C429.58,158.84 429.46,159.03 429.36,159.28C429.26,159.53 429.23,159.72 429.25,159.83C429.33,159.97 429.32,160.04 429.21,160.04C429.1,160.04 429.07,160.08 429.13,160.17C429.21,160.4 429.43,160.56 429.77,160.68C430.08,160.79 431.29,160.85 433.41,160.85C437.81,160.91 440.16,160.86 440.44,160.72C440.67,160.58 440.71,160.49 440.57,160.47C440.26,160.36 440.17,160.17 440.32,159.92C440.4,159.78 440.38,159.55 440.24,159.24C440.13,159.04 440.03,158.92 439.94,158.88C439.86,158.84 439.62,158.83 439.22,158.86C438.85,158.89 438.63,158.89 438.56,158.86C438.49,158.83 438.45,158.75 438.45,158.61C438.45,158.41 438.39,158.31 438.26,158.31C438.13,158.31 438.03,158.23 437.94,158.06C437.86,157.89 437.84,157.72 437.9,157.55C437.93,157.35 437.89,157.2 437.77,157.08C437.46,156.85 437.4,156.15 437.6,154.96C437.66,154.54 437.66,154.27 437.6,154.16C437.54,153.99 437.5,153.31 437.47,152.13C437.44,150.94 437.44,150.17 437.47,149.8C437.53,149.52 437.58,149.35 437.62,149.29C437.66,149.23 437.77,149.21 437.94,149.21C438.17,149.21 438.41,149.04 438.66,148.7C438.89,148.36 439,148.16 439,148.11C439,148.06 439.1,147.88 439.3,147.6C439.44,147.4 439.51,147.27 439.51,147.2C439.51,147.13 439.46,147 439.36,146.82C439.26,146.64 439.21,146.52 439.21,146.46C439.21,146.4 439.28,146.33 439.42,146.25C439.59,146.11 439.76,146.08 439.93,146.17C440.32,146.4 440.65,146.37 440.9,146.09C441.04,145.95 441.24,145.92 441.49,146.01C441.52,146.01 441.55,146.02 441.57,146.05C441.74,146.11 441.83,146.12 441.85,146.09C441.86,146.06 441.81,145.91 441.7,145.62C441.7,145.59 441.69,145.56 441.66,145.54C441.6,145.43 441.63,145.37 441.74,145.37C441.82,145.37 441.89,145.26 441.95,145.03C442.01,144.78 442.15,144.55 442.37,144.35C442.51,144.21 442.6,144.02 442.65,143.78C442.69,143.54 442.65,143.38 442.54,143.31C442.43,143.24 442.39,143.17 442.43,143.1C442.47,143.03 442.56,142.99 442.71,142.99C443.11,142.96 443.63,142.58 444.28,141.85C444.99,141.03 445.62,140.61 446.19,140.58C446.47,140.58 446.73,140.47 446.95,140.24C447.2,140.04 447.51,139.96 447.88,139.99C448.25,140.07 448.53,140.09 448.73,140.03C448.9,139.97 449.06,139.8 449.22,139.52C449.37,139.24 449.47,138.94 449.5,138.63C449.53,138.38 449.53,138.21 449.5,138.14C449.47,138.07 449.36,137.98 449.16,137.86L449.18,137.85ZM505.25,149.52C503.67,149.04 500.97,148.56 496.95,148.04C491.07,147.26 485.04,146.72 479.4,146.62L479.25,146.62C478.66,146.57 477.92,146.57 477.02,146.62C476.1,146.68 475.43,146.7 475.02,146.69C474.81,146.69 473.97,146.65 472.46,146.57C470.92,146.5 469.85,146.49 469.28,146.56C465.87,146.65 463.17,146.79 461.27,146.96C459.71,147.11 458.84,147.2 458.71,147.24C458.04,147.49 457.63,147.98 457.5,148.68C457.36,149.17 457.43,149.57 457.7,149.87C457.97,150.09 458.68,150.39 459.8,150.78C460.91,151.16 461.84,151.4 462.61,151.52C463.11,151.6 464.11,151.66 465.58,151.69C467.02,151.73 467.84,151.76 468.07,151.8C468.53,151.83 469.37,151.9 470.56,152C471.73,152.1 472.57,152.16 473.12,152.18C473.23,152.18 475.24,152.15 478.98,152.11C482.22,152.04 483.82,152 483.91,152C484.98,151.98 486.55,151.97 488.58,151.97C490.54,151.97 491.92,151.95 492.77,151.9C492.92,151.9 493.19,151.86 493.57,151.78C493.95,151.71 494.25,151.67 494.47,151.66L497.4,151.66C498.1,151.61 499.11,151.49 500.42,151.29C501.69,151.1 502.6,151 503.17,150.99L504.14,150.99C504.6,150.99 504.99,150.99 505.32,150.97C505.65,150.95 505.96,150.91 506.25,150.85C506.48,150.82 506.74,150.71 507.03,150.54C507.32,150.36 507.43,150.25 507.37,150.19C507.37,150.13 506.68,149.91 505.26,149.5L505.25,149.52Z" style="fill:rgb(130,8,23);fill-rule:nonzero;"/>
</svg>
